<?xml version="1.0" encoding="utf-8" standalone="no"?>
<!DOCTYPE svg PUBLIC "-//W3C//DTD SVG 1.1//EN"
  "http://www.w3.org/Graphics/SVG/1.1/DTD/svg11.dtd">
<svg xmlns:xlink="http://www.w3.org/1999/xlink" width="1254.608359pt" height="513.629531pt" viewBox="0 0 1254.608359 513.629531" xmlns="http://www.w3.org/2000/svg" version="1.1">
 <metadata>
  <rdf:RDF xmlns:dc="http://purl.org/dc/elements/1.1/" xmlns:cc="http://creativecommons.org/ns#" xmlns:rdf="http://www.w3.org/1999/02/22-rdf-syntax-ns#">
   <cc:Work>
    <dc:type rdf:resource="http://purl.org/dc/dcmitype/StillImage"/>
    <dc:date>2026-04-04T17:12:20.482331</dc:date>
    <dc:format>image/svg+xml</dc:format>
    <dc:creator>
     <cc:Agent>
      <dc:title>Matplotlib v3.7.5, https://matplotlib.org/</dc:title>
     </cc:Agent>
    </dc:creator>
   </cc:Work>
  </rdf:RDF>
 </metadata>
 <defs>
  <style type="text/css">*{stroke-linejoin: round; stroke-linecap: butt}</style>
 </defs>
 <g id="figure_1">
  <g id="patch_1">
   <path d="M 0 513.629531 
L 1254.608359 513.629531 
L 1254.608359 0 
L 0 0 
z
" style="fill: #ffffff"/>
  </g>
  <g id="axes_1">
   <g id="patch_2">
    <path d="M 177.226016 456.54 
L 553.976016 456.54 
L 553.976016 98.16 
L 177.226016 98.16 
z
" style="fill: #ffffff"/>
   </g>
   <g id="matplotlib.axis_1">
    <g id="xtick_1">
     <g id="line2d_1">
      <path d="M 177.226016 456.54 
L 177.226016 98.16 
" clip-path="url(#pc982840d5a)" style="fill: none; stroke: #cccccc; stroke-width: 1.5; stroke-linecap: round"/>
     </g>
     <g id="text_1">
      <!-- 0.0 -->
      <g style="fill: #262626" transform="translate(164.105938 481.577422) scale(0.165 -0.165)">
       <defs>
        <path id="DejaVuSans-30" d="M 2034 4250 
Q 1547 4250 1301 3770 
Q 1056 3291 1056 2328 
Q 1056 1369 1301 889 
Q 1547 409 2034 409 
Q 2525 409 2770 889 
Q 3016 1369 3016 2328 
Q 3016 3291 2770 3770 
Q 2525 4250 2034 4250 
z
M 2034 4750 
Q 2819 4750 3233 4129 
Q 3647 3509 3647 2328 
Q 3647 1150 3233 529 
Q 2819 -91 2034 -91 
Q 1250 -91 836 529 
Q 422 1150 422 2328 
Q 422 3509 836 4129 
Q 1250 4750 2034 4750 
z
" transform="scale(0.015625)"/>
        <path id="DejaVuSans-2e" d="M 684 794 
L 1344 794 
L 1344 0 
L 684 0 
L 684 794 
z
" transform="scale(0.015625)"/>
       </defs>
       <use xlink:href="#DejaVuSans-30"/>
       <use xlink:href="#DejaVuSans-2e" x="63.623047"/>
       <use xlink:href="#DejaVuSans-30" x="95.410156"/>
      </g>
     </g>
    </g>
    <g id="xtick_2">
     <g id="line2d_2">
      <path d="M 237.411343 456.54 
L 237.411343 98.16 
" clip-path="url(#pc982840d5a)" style="fill: none; stroke: #cccccc; stroke-width: 1.5; stroke-linecap: round"/>
     </g>
     <g id="text_2">
      <!-- 0.2 -->
      <g style="fill: #262626" transform="translate(224.291265 481.577422) scale(0.165 -0.165)">
       <defs>
        <path id="DejaVuSans-32" d="M 1228 531 
L 3431 531 
L 3431 0 
L 469 0 
L 469 531 
Q 828 903 1448 1529 
Q 2069 2156 2228 2338 
Q 2531 2678 2651 2914 
Q 2772 3150 2772 3378 
Q 2772 3750 2511 3984 
Q 2250 4219 1831 4219 
Q 1534 4219 1204 4116 
Q 875 4013 500 3803 
L 500 4441 
Q 881 4594 1212 4672 
Q 1544 4750 1819 4750 
Q 2544 4750 2975 4387 
Q 3406 4025 3406 3419 
Q 3406 3131 3298 2873 
Q 3191 2616 2906 2266 
Q 2828 2175 2409 1742 
Q 1991 1309 1228 531 
z
" transform="scale(0.015625)"/>
       </defs>
       <use xlink:href="#DejaVuSans-30"/>
       <use xlink:href="#DejaVuSans-2e" x="63.623047"/>
       <use xlink:href="#DejaVuSans-32" x="95.410156"/>
      </g>
     </g>
    </g>
    <g id="xtick_3">
     <g id="line2d_3">
      <path d="M 297.596671 456.54 
L 297.596671 98.16 
" clip-path="url(#pc982840d5a)" style="fill: none; stroke: #cccccc; stroke-width: 1.5; stroke-linecap: round"/>
     </g>
     <g id="text_3">
      <!-- 0.4 -->
      <g style="fill: #262626" transform="translate(284.476592 481.577422) scale(0.165 -0.165)">
       <defs>
        <path id="DejaVuSans-34" d="M 2419 4116 
L 825 1625 
L 2419 1625 
L 2419 4116 
z
M 2253 4666 
L 3047 4666 
L 3047 1625 
L 3713 1625 
L 3713 1100 
L 3047 1100 
L 3047 0 
L 2419 0 
L 2419 1100 
L 313 1100 
L 313 1709 
L 2253 4666 
z
" transform="scale(0.015625)"/>
       </defs>
       <use xlink:href="#DejaVuSans-30"/>
       <use xlink:href="#DejaVuSans-2e" x="63.623047"/>
       <use xlink:href="#DejaVuSans-34" x="95.410156"/>
      </g>
     </g>
    </g>
    <g id="xtick_4">
     <g id="line2d_4">
      <path d="M 357.781998 456.54 
L 357.781998 98.16 
" clip-path="url(#pc982840d5a)" style="fill: none; stroke: #cccccc; stroke-width: 1.5; stroke-linecap: round"/>
     </g>
     <g id="text_4">
      <!-- 0.6 -->
      <g style="fill: #262626" transform="translate(344.66192 481.577422) scale(0.165 -0.165)">
       <defs>
        <path id="DejaVuSans-36" d="M 2113 2584 
Q 1688 2584 1439 2293 
Q 1191 2003 1191 1497 
Q 1191 994 1439 701 
Q 1688 409 2113 409 
Q 2538 409 2786 701 
Q 3034 994 3034 1497 
Q 3034 2003 2786 2293 
Q 2538 2584 2113 2584 
z
M 3366 4563 
L 3366 3988 
Q 3128 4100 2886 4159 
Q 2644 4219 2406 4219 
Q 1781 4219 1451 3797 
Q 1122 3375 1075 2522 
Q 1259 2794 1537 2939 
Q 1816 3084 2150 3084 
Q 2853 3084 3261 2657 
Q 3669 2231 3669 1497 
Q 3669 778 3244 343 
Q 2819 -91 2113 -91 
Q 1303 -91 875 529 
Q 447 1150 447 2328 
Q 447 3434 972 4092 
Q 1497 4750 2381 4750 
Q 2619 4750 2861 4703 
Q 3103 4656 3366 4563 
z
" transform="scale(0.015625)"/>
       </defs>
       <use xlink:href="#DejaVuSans-30"/>
       <use xlink:href="#DejaVuSans-2e" x="63.623047"/>
       <use xlink:href="#DejaVuSans-36" x="95.410156"/>
      </g>
     </g>
    </g>
    <g id="xtick_5">
     <g id="line2d_5">
      <path d="M 417.967325 456.54 
L 417.967325 98.16 
" clip-path="url(#pc982840d5a)" style="fill: none; stroke: #cccccc; stroke-width: 1.5; stroke-linecap: round"/>
     </g>
     <g id="text_5">
      <!-- 0.8 -->
      <g style="fill: #262626" transform="translate(404.847247 481.577422) scale(0.165 -0.165)">
       <defs>
        <path id="DejaVuSans-38" d="M 2034 2216 
Q 1584 2216 1326 1975 
Q 1069 1734 1069 1313 
Q 1069 891 1326 650 
Q 1584 409 2034 409 
Q 2484 409 2743 651 
Q 3003 894 3003 1313 
Q 3003 1734 2745 1975 
Q 2488 2216 2034 2216 
z
M 1403 2484 
Q 997 2584 770 2862 
Q 544 3141 544 3541 
Q 544 4100 942 4425 
Q 1341 4750 2034 4750 
Q 2731 4750 3128 4425 
Q 3525 4100 3525 3541 
Q 3525 3141 3298 2862 
Q 3072 2584 2669 2484 
Q 3125 2378 3379 2068 
Q 3634 1759 3634 1313 
Q 3634 634 3220 271 
Q 2806 -91 2034 -91 
Q 1263 -91 848 271 
Q 434 634 434 1313 
Q 434 1759 690 2068 
Q 947 2378 1403 2484 
z
M 1172 3481 
Q 1172 3119 1398 2916 
Q 1625 2713 2034 2713 
Q 2441 2713 2670 2916 
Q 2900 3119 2900 3481 
Q 2900 3844 2670 4047 
Q 2441 4250 2034 4250 
Q 1625 4250 1398 4047 
Q 1172 3844 1172 3481 
z
" transform="scale(0.015625)"/>
       </defs>
       <use xlink:href="#DejaVuSans-30"/>
       <use xlink:href="#DejaVuSans-2e" x="63.623047"/>
       <use xlink:href="#DejaVuSans-38" x="95.410156"/>
      </g>
     </g>
    </g>
    <g id="xtick_6">
     <g id="line2d_6">
      <path d="M 478.152653 456.54 
L 478.152653 98.16 
" clip-path="url(#pc982840d5a)" style="fill: none; stroke: #cccccc; stroke-width: 1.5; stroke-linecap: round"/>
     </g>
     <g id="text_6">
      <!-- 1.0 -->
      <g style="fill: #262626" transform="translate(465.032575 481.577422) scale(0.165 -0.165)">
       <defs>
        <path id="DejaVuSans-31" d="M 794 531 
L 1825 531 
L 1825 4091 
L 703 3866 
L 703 4441 
L 1819 4666 
L 2450 4666 
L 2450 531 
L 3481 531 
L 3481 0 
L 794 0 
L 794 531 
z
" transform="scale(0.015625)"/>
       </defs>
       <use xlink:href="#DejaVuSans-31"/>
       <use xlink:href="#DejaVuSans-2e" x="63.623047"/>
       <use xlink:href="#DejaVuSans-30" x="95.410156"/>
      </g>
     </g>
    </g>
    <g id="xtick_7">
     <g id="line2d_7">
      <path d="M 538.33798 456.54 
L 538.33798 98.16 
" clip-path="url(#pc982840d5a)" style="fill: none; stroke: #cccccc; stroke-width: 1.5; stroke-linecap: round"/>
     </g>
     <g id="text_7">
      <!-- 1.2 -->
      <g style="fill: #262626" transform="translate(525.217902 481.577422) scale(0.165 -0.165)">
       <use xlink:href="#DejaVuSans-31"/>
       <use xlink:href="#DejaVuSans-2e" x="63.623047"/>
       <use xlink:href="#DejaVuSans-32" x="95.410156"/>
      </g>
     </g>
    </g>
    <g id="text_8">
     <!-- Metric value -->
     <g style="fill: #262626" transform="translate(310.176484 502.686094) scale(0.18 -0.18)">
      <defs>
       <path id="DejaVuSans-4d" d="M 628 4666 
L 1569 4666 
L 2759 1491 
L 3956 4666 
L 4897 4666 
L 4897 0 
L 4281 0 
L 4281 4097 
L 3078 897 
L 2444 897 
L 1241 4097 
L 1241 0 
L 628 0 
L 628 4666 
z
" transform="scale(0.015625)"/>
       <path id="DejaVuSans-65" d="M 3597 1894 
L 3597 1613 
L 953 1613 
Q 991 1019 1311 708 
Q 1631 397 2203 397 
Q 2534 397 2845 478 
Q 3156 559 3463 722 
L 3463 178 
Q 3153 47 2828 -22 
Q 2503 -91 2169 -91 
Q 1331 -91 842 396 
Q 353 884 353 1716 
Q 353 2575 817 3079 
Q 1281 3584 2069 3584 
Q 2775 3584 3186 3129 
Q 3597 2675 3597 1894 
z
M 3022 2063 
Q 3016 2534 2758 2815 
Q 2500 3097 2075 3097 
Q 1594 3097 1305 2825 
Q 1016 2553 972 2059 
L 3022 2063 
z
" transform="scale(0.015625)"/>
       <path id="DejaVuSans-74" d="M 1172 4494 
L 1172 3500 
L 2356 3500 
L 2356 3053 
L 1172 3053 
L 1172 1153 
Q 1172 725 1289 603 
Q 1406 481 1766 481 
L 2356 481 
L 2356 0 
L 1766 0 
Q 1100 0 847 248 
Q 594 497 594 1153 
L 594 3053 
L 172 3053 
L 172 3500 
L 594 3500 
L 594 4494 
L 1172 4494 
z
" transform="scale(0.015625)"/>
       <path id="DejaVuSans-72" d="M 2631 2963 
Q 2534 3019 2420 3045 
Q 2306 3072 2169 3072 
Q 1681 3072 1420 2755 
Q 1159 2438 1159 1844 
L 1159 0 
L 581 0 
L 581 3500 
L 1159 3500 
L 1159 2956 
Q 1341 3275 1631 3429 
Q 1922 3584 2338 3584 
Q 2397 3584 2469 3576 
Q 2541 3569 2628 3553 
L 2631 2963 
z
" transform="scale(0.015625)"/>
       <path id="DejaVuSans-69" d="M 603 3500 
L 1178 3500 
L 1178 0 
L 603 0 
L 603 3500 
z
M 603 4863 
L 1178 4863 
L 1178 4134 
L 603 4134 
L 603 4863 
z
" transform="scale(0.015625)"/>
       <path id="DejaVuSans-63" d="M 3122 3366 
L 3122 2828 
Q 2878 2963 2633 3030 
Q 2388 3097 2138 3097 
Q 1578 3097 1268 2742 
Q 959 2388 959 1747 
Q 959 1106 1268 751 
Q 1578 397 2138 397 
Q 2388 397 2633 464 
Q 2878 531 3122 666 
L 3122 134 
Q 2881 22 2623 -34 
Q 2366 -91 2075 -91 
Q 1284 -91 818 406 
Q 353 903 353 1747 
Q 353 2603 823 3093 
Q 1294 3584 2113 3584 
Q 2378 3584 2631 3529 
Q 2884 3475 3122 3366 
z
" transform="scale(0.015625)"/>
       <path id="DejaVuSans-20" transform="scale(0.015625)"/>
       <path id="DejaVuSans-76" d="M 191 3500 
L 800 3500 
L 1894 563 
L 2988 3500 
L 3597 3500 
L 2284 0 
L 1503 0 
L 191 3500 
z
" transform="scale(0.015625)"/>
       <path id="DejaVuSans-61" d="M 2194 1759 
Q 1497 1759 1228 1600 
Q 959 1441 959 1056 
Q 959 750 1161 570 
Q 1363 391 1709 391 
Q 2188 391 2477 730 
Q 2766 1069 2766 1631 
L 2766 1759 
L 2194 1759 
z
M 3341 1997 
L 3341 0 
L 2766 0 
L 2766 531 
Q 2569 213 2275 61 
Q 1981 -91 1556 -91 
Q 1019 -91 701 211 
Q 384 513 384 1019 
Q 384 1609 779 1909 
Q 1175 2209 1959 2209 
L 2766 2209 
L 2766 2266 
Q 2766 2663 2505 2880 
Q 2244 3097 1772 3097 
Q 1472 3097 1187 3025 
Q 903 2953 641 2809 
L 641 3341 
Q 956 3463 1253 3523 
Q 1550 3584 1831 3584 
Q 2591 3584 2966 3190 
Q 3341 2797 3341 1997 
z
" transform="scale(0.015625)"/>
       <path id="DejaVuSans-6c" d="M 603 4863 
L 1178 4863 
L 1178 0 
L 603 0 
L 603 4863 
z
" transform="scale(0.015625)"/>
       <path id="DejaVuSans-75" d="M 544 1381 
L 544 3500 
L 1119 3500 
L 1119 1403 
Q 1119 906 1312 657 
Q 1506 409 1894 409 
Q 2359 409 2629 706 
Q 2900 1003 2900 1516 
L 2900 3500 
L 3475 3500 
L 3475 0 
L 2900 0 
L 2900 538 
Q 2691 219 2414 64 
Q 2138 -91 1772 -91 
Q 1169 -91 856 284 
Q 544 659 544 1381 
z
M 1991 3584 
L 1991 3584 
z
" transform="scale(0.015625)"/>
      </defs>
      <use xlink:href="#DejaVuSans-4d"/>
      <use xlink:href="#DejaVuSans-65" x="86.279297"/>
      <use xlink:href="#DejaVuSans-74" x="147.802734"/>
      <use xlink:href="#DejaVuSans-72" x="187.011719"/>
      <use xlink:href="#DejaVuSans-69" x="228.125"/>
      <use xlink:href="#DejaVuSans-63" x="255.908203"/>
      <use xlink:href="#DejaVuSans-20" x="310.888672"/>
      <use xlink:href="#DejaVuSans-76" x="342.675781"/>
      <use xlink:href="#DejaVuSans-61" x="401.855469"/>
      <use xlink:href="#DejaVuSans-6c" x="463.134766"/>
      <use xlink:href="#DejaVuSans-75" x="490.917969"/>
      <use xlink:href="#DejaVuSans-65" x="554.296875"/>
     </g>
    </g>
   </g>
   <g id="matplotlib.axis_2">
    <g id="ytick_1">
     <g id="text_9">
      <!-- Pair-random -->
      <g style="fill: #262626" transform="translate(65.145938 149.226211) scale(0.165 -0.165)">
       <defs>
        <path id="DejaVuSans-50" d="M 1259 4147 
L 1259 2394 
L 2053 2394 
Q 2494 2394 2734 2622 
Q 2975 2850 2975 3272 
Q 2975 3691 2734 3919 
Q 2494 4147 2053 4147 
L 1259 4147 
z
M 628 4666 
L 2053 4666 
Q 2838 4666 3239 4311 
Q 3641 3956 3641 3272 
Q 3641 2581 3239 2228 
Q 2838 1875 2053 1875 
L 1259 1875 
L 1259 0 
L 628 0 
L 628 4666 
z
" transform="scale(0.015625)"/>
        <path id="DejaVuSans-2d" d="M 313 2009 
L 1997 2009 
L 1997 1497 
L 313 1497 
L 313 2009 
z
" transform="scale(0.015625)"/>
        <path id="DejaVuSans-6e" d="M 3513 2113 
L 3513 0 
L 2938 0 
L 2938 2094 
Q 2938 2591 2744 2837 
Q 2550 3084 2163 3084 
Q 1697 3084 1428 2787 
Q 1159 2491 1159 1978 
L 1159 0 
L 581 0 
L 581 3500 
L 1159 3500 
L 1159 2956 
Q 1366 3272 1645 3428 
Q 1925 3584 2291 3584 
Q 2894 3584 3203 3211 
Q 3513 2838 3513 2113 
z
" transform="scale(0.015625)"/>
        <path id="DejaVuSans-64" d="M 2906 2969 
L 2906 4863 
L 3481 4863 
L 3481 0 
L 2906 0 
L 2906 525 
Q 2725 213 2448 61 
Q 2172 -91 1784 -91 
Q 1150 -91 751 415 
Q 353 922 353 1747 
Q 353 2572 751 3078 
Q 1150 3584 1784 3584 
Q 2172 3584 2448 3432 
Q 2725 3281 2906 2969 
z
M 947 1747 
Q 947 1113 1208 752 
Q 1469 391 1925 391 
Q 2381 391 2643 752 
Q 2906 1113 2906 1747 
Q 2906 2381 2643 2742 
Q 2381 3103 1925 3103 
Q 1469 3103 1208 2742 
Q 947 2381 947 1747 
z
" transform="scale(0.015625)"/>
        <path id="DejaVuSans-6f" d="M 1959 3097 
Q 1497 3097 1228 2736 
Q 959 2375 959 1747 
Q 959 1119 1226 758 
Q 1494 397 1959 397 
Q 2419 397 2687 759 
Q 2956 1122 2956 1747 
Q 2956 2369 2687 2733 
Q 2419 3097 1959 3097 
z
M 1959 3584 
Q 2709 3584 3137 3096 
Q 3566 2609 3566 1747 
Q 3566 888 3137 398 
Q 2709 -91 1959 -91 
Q 1206 -91 779 398 
Q 353 888 353 1747 
Q 353 2609 779 3096 
Q 1206 3584 1959 3584 
z
" transform="scale(0.015625)"/>
        <path id="DejaVuSans-6d" d="M 3328 2828 
Q 3544 3216 3844 3400 
Q 4144 3584 4550 3584 
Q 5097 3584 5394 3201 
Q 5691 2819 5691 2113 
L 5691 0 
L 5113 0 
L 5113 2094 
Q 5113 2597 4934 2840 
Q 4756 3084 4391 3084 
Q 3944 3084 3684 2787 
Q 3425 2491 3425 1978 
L 3425 0 
L 2847 0 
L 2847 2094 
Q 2847 2600 2669 2842 
Q 2491 3084 2119 3084 
Q 1678 3084 1418 2786 
Q 1159 2488 1159 1978 
L 1159 0 
L 581 0 
L 581 3500 
L 1159 3500 
L 1159 2956 
Q 1356 3278 1631 3431 
Q 1906 3584 2284 3584 
Q 2666 3584 2933 3390 
Q 3200 3197 3328 2828 
z
" transform="scale(0.015625)"/>
       </defs>
       <use xlink:href="#DejaVuSans-50"/>
       <use xlink:href="#DejaVuSans-61" x="55.802734"/>
       <use xlink:href="#DejaVuSans-69" x="117.082031"/>
       <use xlink:href="#DejaVuSans-72" x="144.865234"/>
       <use xlink:href="#DejaVuSans-2d" x="179.603516"/>
       <use xlink:href="#DejaVuSans-72" x="215.6875"/>
       <use xlink:href="#DejaVuSans-61" x="256.800781"/>
       <use xlink:href="#DejaVuSans-6e" x="318.080078"/>
       <use xlink:href="#DejaVuSans-64" x="381.458984"/>
       <use xlink:href="#DejaVuSans-6f" x="444.935547"/>
       <use xlink:href="#DejaVuSans-6d" x="506.117188"/>
      </g>
     </g>
    </g>
    <g id="ytick_2">
     <g id="text_10">
      <!-- Cell-line holdout -->
      <g style="fill: #262626" transform="translate(30.276797 238.821211) scale(0.165 -0.165)">
       <defs>
        <path id="DejaVuSans-43" d="M 4122 4306 
L 4122 3641 
Q 3803 3938 3442 4084 
Q 3081 4231 2675 4231 
Q 1875 4231 1450 3742 
Q 1025 3253 1025 2328 
Q 1025 1406 1450 917 
Q 1875 428 2675 428 
Q 3081 428 3442 575 
Q 3803 722 4122 1019 
L 4122 359 
Q 3791 134 3420 21 
Q 3050 -91 2638 -91 
Q 1578 -91 968 557 
Q 359 1206 359 2328 
Q 359 3453 968 4101 
Q 1578 4750 2638 4750 
Q 3056 4750 3426 4639 
Q 3797 4528 4122 4306 
z
" transform="scale(0.015625)"/>
        <path id="DejaVuSans-68" d="M 3513 2113 
L 3513 0 
L 2938 0 
L 2938 2094 
Q 2938 2591 2744 2837 
Q 2550 3084 2163 3084 
Q 1697 3084 1428 2787 
Q 1159 2491 1159 1978 
L 1159 0 
L 581 0 
L 581 4863 
L 1159 4863 
L 1159 2956 
Q 1366 3272 1645 3428 
Q 1925 3584 2291 3584 
Q 2894 3584 3203 3211 
Q 3513 2838 3513 2113 
z
" transform="scale(0.015625)"/>
       </defs>
       <use xlink:href="#DejaVuSans-43"/>
       <use xlink:href="#DejaVuSans-65" x="69.824219"/>
       <use xlink:href="#DejaVuSans-6c" x="131.347656"/>
       <use xlink:href="#DejaVuSans-6c" x="159.130859"/>
       <use xlink:href="#DejaVuSans-2d" x="186.914062"/>
       <use xlink:href="#DejaVuSans-6c" x="222.998047"/>
       <use xlink:href="#DejaVuSans-69" x="250.78125"/>
       <use xlink:href="#DejaVuSans-6e" x="278.564453"/>
       <use xlink:href="#DejaVuSans-65" x="341.943359"/>
       <use xlink:href="#DejaVuSans-20" x="403.466797"/>
       <use xlink:href="#DejaVuSans-68" x="435.253906"/>
       <use xlink:href="#DejaVuSans-6f" x="498.632812"/>
       <use xlink:href="#DejaVuSans-6c" x="559.814453"/>
       <use xlink:href="#DejaVuSans-64" x="587.597656"/>
       <use xlink:href="#DejaVuSans-6f" x="651.074219"/>
       <use xlink:href="#DejaVuSans-75" x="712.255859"/>
       <use xlink:href="#DejaVuSans-74" x="775.634766"/>
      </g>
     </g>
    </g>
    <g id="ytick_3">
     <g id="text_11">
      <!-- Compound holdout -->
      <g style="fill: #262626" transform="translate(7.2 328.416211) scale(0.165 -0.165)">
       <defs>
        <path id="DejaVuSans-70" d="M 1159 525 
L 1159 -1331 
L 581 -1331 
L 581 3500 
L 1159 3500 
L 1159 2969 
Q 1341 3281 1617 3432 
Q 1894 3584 2278 3584 
Q 2916 3584 3314 3078 
Q 3713 2572 3713 1747 
Q 3713 922 3314 415 
Q 2916 -91 2278 -91 
Q 1894 -91 1617 61 
Q 1341 213 1159 525 
z
M 3116 1747 
Q 3116 2381 2855 2742 
Q 2594 3103 2138 3103 
Q 1681 3103 1420 2742 
Q 1159 2381 1159 1747 
Q 1159 1113 1420 752 
Q 1681 391 2138 391 
Q 2594 391 2855 752 
Q 3116 1113 3116 1747 
z
" transform="scale(0.015625)"/>
       </defs>
       <use xlink:href="#DejaVuSans-43"/>
       <use xlink:href="#DejaVuSans-6f" x="69.824219"/>
       <use xlink:href="#DejaVuSans-6d" x="131.005859"/>
       <use xlink:href="#DejaVuSans-70" x="228.417969"/>
       <use xlink:href="#DejaVuSans-6f" x="291.894531"/>
       <use xlink:href="#DejaVuSans-75" x="353.076172"/>
       <use xlink:href="#DejaVuSans-6e" x="416.455078"/>
       <use xlink:href="#DejaVuSans-64" x="479.833984"/>
       <use xlink:href="#DejaVuSans-20" x="543.310547"/>
       <use xlink:href="#DejaVuSans-68" x="575.097656"/>
       <use xlink:href="#DejaVuSans-6f" x="638.476562"/>
       <use xlink:href="#DejaVuSans-6c" x="699.658203"/>
       <use xlink:href="#DejaVuSans-64" x="727.441406"/>
       <use xlink:href="#DejaVuSans-6f" x="790.917969"/>
       <use xlink:href="#DejaVuSans-75" x="852.099609"/>
       <use xlink:href="#DejaVuSans-74" x="915.478516"/>
      </g>
     </g>
    </g>
    <g id="ytick_4">
     <g id="text_12">
      <!-- Double cold start -->
      <g style="fill: #262626" transform="translate(23.114766 418.011211) scale(0.165 -0.165)">
       <defs>
        <path id="DejaVuSans-44" d="M 1259 4147 
L 1259 519 
L 2022 519 
Q 2988 519 3436 956 
Q 3884 1394 3884 2338 
Q 3884 3275 3436 3711 
Q 2988 4147 2022 4147 
L 1259 4147 
z
M 628 4666 
L 1925 4666 
Q 3281 4666 3915 4102 
Q 4550 3538 4550 2338 
Q 4550 1131 3912 565 
Q 3275 0 1925 0 
L 628 0 
L 628 4666 
z
" transform="scale(0.015625)"/>
        <path id="DejaVuSans-62" d="M 3116 1747 
Q 3116 2381 2855 2742 
Q 2594 3103 2138 3103 
Q 1681 3103 1420 2742 
Q 1159 2381 1159 1747 
Q 1159 1113 1420 752 
Q 1681 391 2138 391 
Q 2594 391 2855 752 
Q 3116 1113 3116 1747 
z
M 1159 2969 
Q 1341 3281 1617 3432 
Q 1894 3584 2278 3584 
Q 2916 3584 3314 3078 
Q 3713 2572 3713 1747 
Q 3713 922 3314 415 
Q 2916 -91 2278 -91 
Q 1894 -91 1617 61 
Q 1341 213 1159 525 
L 1159 0 
L 581 0 
L 581 4863 
L 1159 4863 
L 1159 2969 
z
" transform="scale(0.015625)"/>
        <path id="DejaVuSans-73" d="M 2834 3397 
L 2834 2853 
Q 2591 2978 2328 3040 
Q 2066 3103 1784 3103 
Q 1356 3103 1142 2972 
Q 928 2841 928 2578 
Q 928 2378 1081 2264 
Q 1234 2150 1697 2047 
L 1894 2003 
Q 2506 1872 2764 1633 
Q 3022 1394 3022 966 
Q 3022 478 2636 193 
Q 2250 -91 1575 -91 
Q 1294 -91 989 -36 
Q 684 19 347 128 
L 347 722 
Q 666 556 975 473 
Q 1284 391 1588 391 
Q 1994 391 2212 530 
Q 2431 669 2431 922 
Q 2431 1156 2273 1281 
Q 2116 1406 1581 1522 
L 1381 1569 
Q 847 1681 609 1914 
Q 372 2147 372 2553 
Q 372 3047 722 3315 
Q 1072 3584 1716 3584 
Q 2034 3584 2315 3537 
Q 2597 3491 2834 3397 
z
" transform="scale(0.015625)"/>
       </defs>
       <use xlink:href="#DejaVuSans-44"/>
       <use xlink:href="#DejaVuSans-6f" x="77.001953"/>
       <use xlink:href="#DejaVuSans-75" x="138.183594"/>
       <use xlink:href="#DejaVuSans-62" x="201.5625"/>
       <use xlink:href="#DejaVuSans-6c" x="265.039062"/>
       <use xlink:href="#DejaVuSans-65" x="292.822266"/>
       <use xlink:href="#DejaVuSans-20" x="354.345703"/>
       <use xlink:href="#DejaVuSans-63" x="386.132812"/>
       <use xlink:href="#DejaVuSans-6f" x="441.113281"/>
       <use xlink:href="#DejaVuSans-6c" x="502.294922"/>
       <use xlink:href="#DejaVuSans-64" x="530.078125"/>
       <use xlink:href="#DejaVuSans-20" x="593.554688"/>
       <use xlink:href="#DejaVuSans-73" x="625.341797"/>
       <use xlink:href="#DejaVuSans-74" x="677.441406"/>
       <use xlink:href="#DejaVuSans-61" x="716.650391"/>
       <use xlink:href="#DejaVuSans-72" x="777.929688"/>
       <use xlink:href="#DejaVuSans-74" x="819.042969"/>
      </g>
     </g>
    </g>
   </g>
   <g id="patch_3">
    <path d="M 177.226016 107.1195 
L 299.27847 107.1195 
L 299.27847 142.9575 
L 177.226016 142.9575 
z
" clip-path="url(#pc982840d5a)" style="fill: #c06427; stroke: #ffffff; stroke-width: 1.5; stroke-linejoin: miter"/>
   </g>
   <g id="patch_4">
    <path d="M 177.226016 196.7145 
L 320.674448 196.7145 
L 320.674448 232.5525 
L 177.226016 232.5525 
z
" clip-path="url(#pc982840d5a)" style="fill: #c06427; stroke: #ffffff; stroke-width: 1.5; stroke-linejoin: miter"/>
   </g>
   <g id="patch_5">
    <path d="M 177.226016 286.3095 
L 449.170193 286.3095 
L 449.170193 322.1475 
L 177.226016 322.1475 
z
" clip-path="url(#pc982840d5a)" style="fill: #c06427; stroke: #ffffff; stroke-width: 1.5; stroke-linejoin: miter"/>
   </g>
   <g id="patch_6">
    <path d="M 177.226016 375.9045 
L 458.977111 375.9045 
L 458.977111 411.7425 
L 177.226016 411.7425 
z
" clip-path="url(#pc982840d5a)" style="fill: #c06427; stroke: #ffffff; stroke-width: 1.5; stroke-linejoin: miter"/>
   </g>
   <g id="patch_7">
    <path d="M 177.226016 142.9575 
L 340.574065 142.9575 
L 340.574065 178.7955 
L 177.226016 178.7955 
z
" clip-path="url(#pc982840d5a)" style="fill: #7b74a8; stroke: #ffffff; stroke-width: 1.5; stroke-linejoin: miter"/>
   </g>
   <g id="patch_8">
    <path d="M 177.226016 232.5525 
L 365.825624 232.5525 
L 365.825624 268.3905 
L 177.226016 268.3905 
z
" clip-path="url(#pc982840d5a)" style="fill: #7b74a8; stroke: #ffffff; stroke-width: 1.5; stroke-linejoin: miter"/>
   </g>
   <g id="patch_9">
    <path d="M 177.226016 322.1475 
L 523.992793 322.1475 
L 523.992793 357.9855 
L 177.226016 357.9855 
z
" clip-path="url(#pc982840d5a)" style="fill: #7b74a8; stroke: #ffffff; stroke-width: 1.5; stroke-linejoin: miter"/>
   </g>
   <g id="patch_10">
    <path d="M 177.226016 411.7425 
L 536.035539 411.7425 
L 536.035539 447.5805 
L 177.226016 447.5805 
z
" clip-path="url(#pc982840d5a)" style="fill: #7b74a8; stroke: #ffffff; stroke-width: 1.5; stroke-linejoin: miter"/>
   </g>
   <g id="patch_11">
    <path d="M 177.226016 142.9575 
L 177.226016 142.9575 
L 177.226016 142.9575 
L 177.226016 142.9575 
z
" clip-path="url(#pc982840d5a)" style="fill: #c06427; stroke: #ffffff; stroke-width: 1.5; stroke-linejoin: miter"/>
   </g>
   <g id="patch_12">
    <path d="M 177.226016 142.9575 
L 177.226016 142.9575 
L 177.226016 142.9575 
L 177.226016 142.9575 
z
" clip-path="url(#pc982840d5a)" style="fill: #7b74a8; stroke: #ffffff; stroke-width: 1.5; stroke-linejoin: miter"/>
   </g>
   <g id="line2d_8">
    <path clip-path="url(#pc982840d5a)" style="fill: none; stroke: #424242; stroke-width: 3.375; stroke-linecap: round"/>
   </g>
   <g id="line2d_9">
    <path clip-path="url(#pc982840d5a)" style="fill: none; stroke: #424242; stroke-width: 3.375; stroke-linecap: round"/>
   </g>
   <g id="line2d_10">
    <path clip-path="url(#pc982840d5a)" style="fill: none; stroke: #424242; stroke-width: 3.375; stroke-linecap: round"/>
   </g>
   <g id="line2d_11">
    <path clip-path="url(#pc982840d5a)" style="fill: none; stroke: #424242; stroke-width: 3.375; stroke-linecap: round"/>
   </g>
   <g id="line2d_12">
    <path clip-path="url(#pc982840d5a)" style="fill: none; stroke: #424242; stroke-width: 3.375; stroke-linecap: round"/>
   </g>
   <g id="line2d_13">
    <path clip-path="url(#pc982840d5a)" style="fill: none; stroke: #424242; stroke-width: 3.375; stroke-linecap: round"/>
   </g>
   <g id="line2d_14">
    <path clip-path="url(#pc982840d5a)" style="fill: none; stroke: #424242; stroke-width: 3.375; stroke-linecap: round"/>
   </g>
   <g id="line2d_15">
    <path clip-path="url(#pc982840d5a)" style="fill: none; stroke: #424242; stroke-width: 3.375; stroke-linecap: round"/>
   </g>
   <g id="patch_13">
    <path d="M 177.226016 456.54 
L 177.226016 98.16 
" style="fill: none; stroke: #cccccc; stroke-width: 1.875; stroke-linejoin: miter; stroke-linecap: square"/>
   </g>
   <g id="patch_14">
    <path d="M 553.976016 456.54 
L 553.976016 98.16 
" style="fill: none; stroke: #cccccc; stroke-width: 1.875; stroke-linejoin: miter; stroke-linecap: square"/>
   </g>
   <g id="patch_15">
    <path d="M 177.226016 456.54 
L 553.976016 456.54 
" style="fill: none; stroke: #cccccc; stroke-width: 1.875; stroke-linejoin: miter; stroke-linecap: square"/>
   </g>
   <g id="patch_16">
    <path d="M 177.226016 98.16 
L 553.976016 98.16 
" style="fill: none; stroke: #cccccc; stroke-width: 1.875; stroke-linejoin: miter; stroke-linecap: square"/>
   </g>
   <g id="text_13">
    <!-- A. Error rises under leakage-safe regimes -->
    <g style="fill: #262626" transform="translate(179.260234 92.16) scale(0.18 -0.18)">
     <defs>
      <path id="DejaVuSans-41" d="M 2188 4044 
L 1331 1722 
L 3047 1722 
L 2188 4044 
z
M 1831 4666 
L 2547 4666 
L 4325 0 
L 3669 0 
L 3244 1197 
L 1141 1197 
L 716 0 
L 50 0 
L 1831 4666 
z
" transform="scale(0.015625)"/>
      <path id="DejaVuSans-45" d="M 628 4666 
L 3578 4666 
L 3578 4134 
L 1259 4134 
L 1259 2753 
L 3481 2753 
L 3481 2222 
L 1259 2222 
L 1259 531 
L 3634 531 
L 3634 0 
L 628 0 
L 628 4666 
z
" transform="scale(0.015625)"/>
      <path id="DejaVuSans-6b" d="M 581 4863 
L 1159 4863 
L 1159 1991 
L 2875 3500 
L 3609 3500 
L 1753 1863 
L 3688 0 
L 2938 0 
L 1159 1709 
L 1159 0 
L 581 0 
L 581 4863 
z
" transform="scale(0.015625)"/>
      <path id="DejaVuSans-67" d="M 2906 1791 
Q 2906 2416 2648 2759 
Q 2391 3103 1925 3103 
Q 1463 3103 1205 2759 
Q 947 2416 947 1791 
Q 947 1169 1205 825 
Q 1463 481 1925 481 
Q 2391 481 2648 825 
Q 2906 1169 2906 1791 
z
M 3481 434 
Q 3481 -459 3084 -895 
Q 2688 -1331 1869 -1331 
Q 1566 -1331 1297 -1286 
Q 1028 -1241 775 -1147 
L 775 -588 
Q 1028 -725 1275 -790 
Q 1522 -856 1778 -856 
Q 2344 -856 2625 -561 
Q 2906 -266 2906 331 
L 2906 616 
Q 2728 306 2450 153 
Q 2172 0 1784 0 
Q 1141 0 747 490 
Q 353 981 353 1791 
Q 353 2603 747 3093 
Q 1141 3584 1784 3584 
Q 2172 3584 2450 3431 
Q 2728 3278 2906 2969 
L 2906 3500 
L 3481 3500 
L 3481 434 
z
" transform="scale(0.015625)"/>
      <path id="DejaVuSans-66" d="M 2375 4863 
L 2375 4384 
L 1825 4384 
Q 1516 4384 1395 4259 
Q 1275 4134 1275 3809 
L 1275 3500 
L 2222 3500 
L 2222 3053 
L 1275 3053 
L 1275 0 
L 697 0 
L 697 3053 
L 147 3053 
L 147 3500 
L 697 3500 
L 697 3744 
Q 697 4328 969 4595 
Q 1241 4863 1831 4863 
L 2375 4863 
z
" transform="scale(0.015625)"/>
     </defs>
     <use xlink:href="#DejaVuSans-41"/>
     <use xlink:href="#DejaVuSans-2e" x="66.658203"/>
     <use xlink:href="#DejaVuSans-20" x="98.445312"/>
     <use xlink:href="#DejaVuSans-45" x="130.232422"/>
     <use xlink:href="#DejaVuSans-72" x="193.416016"/>
     <use xlink:href="#DejaVuSans-72" x="232.779297"/>
     <use xlink:href="#DejaVuSans-6f" x="271.642578"/>
     <use xlink:href="#DejaVuSans-72" x="332.824219"/>
     <use xlink:href="#DejaVuSans-20" x="373.9375"/>
     <use xlink:href="#DejaVuSans-72" x="405.724609"/>
     <use xlink:href="#DejaVuSans-69" x="446.837891"/>
     <use xlink:href="#DejaVuSans-73" x="474.621094"/>
     <use xlink:href="#DejaVuSans-65" x="526.720703"/>
     <use xlink:href="#DejaVuSans-73" x="588.244141"/>
     <use xlink:href="#DejaVuSans-20" x="640.34375"/>
     <use xlink:href="#DejaVuSans-75" x="672.130859"/>
     <use xlink:href="#DejaVuSans-6e" x="735.509766"/>
     <use xlink:href="#DejaVuSans-64" x="798.888672"/>
     <use xlink:href="#DejaVuSans-65" x="862.365234"/>
     <use xlink:href="#DejaVuSans-72" x="923.888672"/>
     <use xlink:href="#DejaVuSans-20" x="965.001953"/>
     <use xlink:href="#DejaVuSans-6c" x="996.789062"/>
     <use xlink:href="#DejaVuSans-65" x="1024.572266"/>
     <use xlink:href="#DejaVuSans-61" x="1086.095703"/>
     <use xlink:href="#DejaVuSans-6b" x="1147.375"/>
     <use xlink:href="#DejaVuSans-61" x="1203.535156"/>
     <use xlink:href="#DejaVuSans-67" x="1264.814453"/>
     <use xlink:href="#DejaVuSans-65" x="1328.291016"/>
     <use xlink:href="#DejaVuSans-2d" x="1389.814453"/>
     <use xlink:href="#DejaVuSans-73" x="1425.898438"/>
     <use xlink:href="#DejaVuSans-61" x="1477.998047"/>
     <use xlink:href="#DejaVuSans-66" x="1539.277344"/>
     <use xlink:href="#DejaVuSans-65" x="1574.482422"/>
     <use xlink:href="#DejaVuSans-20" x="1636.005859"/>
     <use xlink:href="#DejaVuSans-72" x="1667.792969"/>
     <use xlink:href="#DejaVuSans-65" x="1706.65625"/>
     <use xlink:href="#DejaVuSans-67" x="1768.179688"/>
     <use xlink:href="#DejaVuSans-69" x="1831.65625"/>
     <use xlink:href="#DejaVuSans-6d" x="1859.439453"/>
     <use xlink:href="#DejaVuSans-65" x="1956.851562"/>
     <use xlink:href="#DejaVuSans-73" x="2018.375"/>
    </g>
   </g>
   <g id="legend_1">
    <g id="patch_17">
     <path d="M 443.023828 159.797813 
L 542.426016 159.797813 
Q 545.726016 159.797813 545.726016 156.497813 
L 545.726016 109.71 
Q 545.726016 106.41 542.426016 106.41 
L 443.023828 106.41 
Q 439.723828 106.41 439.723828 109.71 
L 439.723828 156.497813 
Q 439.723828 159.797813 443.023828 159.797813 
z
" style="fill: #ffffff; opacity: 0.8; stroke: #cccccc; stroke-width: 1.5; stroke-linejoin: miter"/>
    </g>
    <g id="patch_18">
     <path d="M 446.323828 125.547422 
L 479.323828 125.547422 
L 479.323828 113.997422 
L 446.323828 113.997422 
z
" style="fill: #c06427; stroke: #ffffff; stroke-width: 1.5; stroke-linejoin: miter"/>
    </g>
    <g id="text_14">
     <!-- MAE -->
     <g style="fill: #262626" transform="translate(492.523828 125.547422) scale(0.165 -0.165)">
      <use xlink:href="#DejaVuSans-4d"/>
      <use xlink:href="#DejaVuSans-41" x="86.279297"/>
      <use xlink:href="#DejaVuSans-45" x="154.6875"/>
     </g>
    </g>
    <g id="patch_19">
     <path d="M 446.323828 149.766328 
L 479.323828 149.766328 
L 479.323828 138.216328 
L 446.323828 138.216328 
z
" style="fill: #7b74a8; stroke: #ffffff; stroke-width: 1.5; stroke-linejoin: miter"/>
    </g>
    <g id="text_15">
     <!-- RMSE -->
     <g style="fill: #262626" transform="translate(492.523828 149.766328) scale(0.165 -0.165)">
      <defs>
       <path id="DejaVuSans-52" d="M 2841 2188 
Q 3044 2119 3236 1894 
Q 3428 1669 3622 1275 
L 4263 0 
L 3584 0 
L 2988 1197 
Q 2756 1666 2539 1819 
Q 2322 1972 1947 1972 
L 1259 1972 
L 1259 0 
L 628 0 
L 628 4666 
L 2053 4666 
Q 2853 4666 3247 4331 
Q 3641 3997 3641 3322 
Q 3641 2881 3436 2590 
Q 3231 2300 2841 2188 
z
M 1259 4147 
L 1259 2491 
L 2053 2491 
Q 2509 2491 2742 2702 
Q 2975 2913 2975 3322 
Q 2975 3731 2742 3939 
Q 2509 4147 2053 4147 
L 1259 4147 
z
" transform="scale(0.015625)"/>
       <path id="DejaVuSans-53" d="M 3425 4513 
L 3425 3897 
Q 3066 4069 2747 4153 
Q 2428 4238 2131 4238 
Q 1616 4238 1336 4038 
Q 1056 3838 1056 3469 
Q 1056 3159 1242 3001 
Q 1428 2844 1947 2747 
L 2328 2669 
Q 3034 2534 3370 2195 
Q 3706 1856 3706 1288 
Q 3706 609 3251 259 
Q 2797 -91 1919 -91 
Q 1588 -91 1214 -16 
Q 841 59 441 206 
L 441 856 
Q 825 641 1194 531 
Q 1563 422 1919 422 
Q 2459 422 2753 634 
Q 3047 847 3047 1241 
Q 3047 1584 2836 1778 
Q 2625 1972 2144 2069 
L 1759 2144 
Q 1053 2284 737 2584 
Q 422 2884 422 3419 
Q 422 4038 858 4394 
Q 1294 4750 2059 4750 
Q 2388 4750 2728 4690 
Q 3069 4631 3425 4513 
z
" transform="scale(0.015625)"/>
      </defs>
      <use xlink:href="#DejaVuSans-52"/>
      <use xlink:href="#DejaVuSans-4d" x="69.482422"/>
      <use xlink:href="#DejaVuSans-53" x="155.761719"/>
      <use xlink:href="#DejaVuSans-45" x="219.238281"/>
     </g>
    </g>
   </g>
  </g>
  <g id="axes_2">
   <g id="patch_20">
    <path d="M 743.506016 456.54 
L 1120.256016 456.54 
L 1120.256016 98.16 
L 743.506016 98.16 
z
" style="fill: #ffffff"/>
   </g>
   <g id="matplotlib.axis_3">
    <g id="xtick_8">
     <g id="line2d_16">
      <path d="M 798.406936 456.54 
L 798.406936 98.16 
" clip-path="url(#p1e14cb42f5)" style="fill: none; stroke: #cccccc; stroke-width: 1.5; stroke-linecap: round"/>
     </g>
     <g id="text_16">
      <!-- 0.0 -->
      <g style="fill: #262626" transform="translate(785.286858 481.577422) scale(0.165 -0.165)">
       <use xlink:href="#DejaVuSans-30"/>
       <use xlink:href="#DejaVuSans-2e" x="63.623047"/>
       <use xlink:href="#DejaVuSans-30" x="95.410156"/>
      </g>
     </g>
    </g>
    <g id="xtick_9">
     <g id="line2d_17">
      <path d="M 867.524213 456.54 
L 867.524213 98.16 
" clip-path="url(#p1e14cb42f5)" style="fill: none; stroke: #cccccc; stroke-width: 1.5; stroke-linecap: round"/>
     </g>
     <g id="text_17">
      <!-- 0.2 -->
      <g style="fill: #262626" transform="translate(854.404135 481.577422) scale(0.165 -0.165)">
       <use xlink:href="#DejaVuSans-30"/>
       <use xlink:href="#DejaVuSans-2e" x="63.623047"/>
       <use xlink:href="#DejaVuSans-32" x="95.410156"/>
      </g>
     </g>
    </g>
    <g id="xtick_10">
     <g id="line2d_18">
      <path d="M 936.64149 456.54 
L 936.64149 98.16 
" clip-path="url(#p1e14cb42f5)" style="fill: none; stroke: #cccccc; stroke-width: 1.5; stroke-linecap: round"/>
     </g>
     <g id="text_18">
      <!-- 0.4 -->
      <g style="fill: #262626" transform="translate(923.521412 481.577422) scale(0.165 -0.165)">
       <use xlink:href="#DejaVuSans-30"/>
       <use xlink:href="#DejaVuSans-2e" x="63.623047"/>
       <use xlink:href="#DejaVuSans-34" x="95.410156"/>
      </g>
     </g>
    </g>
    <g id="xtick_11">
     <g id="line2d_19">
      <path d="M 1005.758766 456.54 
L 1005.758766 98.16 
" clip-path="url(#p1e14cb42f5)" style="fill: none; stroke: #cccccc; stroke-width: 1.5; stroke-linecap: round"/>
     </g>
     <g id="text_19">
      <!-- 0.6 -->
      <g style="fill: #262626" transform="translate(992.638688 481.577422) scale(0.165 -0.165)">
       <use xlink:href="#DejaVuSans-30"/>
       <use xlink:href="#DejaVuSans-2e" x="63.623047"/>
       <use xlink:href="#DejaVuSans-36" x="95.410156"/>
      </g>
     </g>
    </g>
    <g id="xtick_12">
     <g id="line2d_20">
      <path d="M 1074.876043 456.54 
L 1074.876043 98.16 
" clip-path="url(#p1e14cb42f5)" style="fill: none; stroke: #cccccc; stroke-width: 1.5; stroke-linecap: round"/>
     </g>
     <g id="text_20">
      <!-- 0.8 -->
      <g style="fill: #262626" transform="translate(1061.755965 481.577422) scale(0.165 -0.165)">
       <use xlink:href="#DejaVuSans-30"/>
       <use xlink:href="#DejaVuSans-2e" x="63.623047"/>
       <use xlink:href="#DejaVuSans-38" x="95.410156"/>
      </g>
     </g>
    </g>
    <g id="text_21">
     <!-- Metric value -->
     <g style="fill: #262626" transform="translate(876.456484 502.686094) scale(0.18 -0.18)">
      <use xlink:href="#DejaVuSans-4d"/>
      <use xlink:href="#DejaVuSans-65" x="86.279297"/>
      <use xlink:href="#DejaVuSans-74" x="147.802734"/>
      <use xlink:href="#DejaVuSans-72" x="187.011719"/>
      <use xlink:href="#DejaVuSans-69" x="228.125"/>
      <use xlink:href="#DejaVuSans-63" x="255.908203"/>
      <use xlink:href="#DejaVuSans-20" x="310.888672"/>
      <use xlink:href="#DejaVuSans-76" x="342.675781"/>
      <use xlink:href="#DejaVuSans-61" x="401.855469"/>
      <use xlink:href="#DejaVuSans-6c" x="463.134766"/>
      <use xlink:href="#DejaVuSans-75" x="490.917969"/>
      <use xlink:href="#DejaVuSans-65" x="554.296875"/>
     </g>
    </g>
   </g>
   <g id="matplotlib.axis_4">
    <g id="ytick_5">
     <g id="text_22">
      <!-- Pair-random -->
      <g style="fill: #262626" transform="translate(631.425937 149.226211) scale(0.165 -0.165)">
       <use xlink:href="#DejaVuSans-50"/>
       <use xlink:href="#DejaVuSans-61" x="55.802734"/>
       <use xlink:href="#DejaVuSans-69" x="117.082031"/>
       <use xlink:href="#DejaVuSans-72" x="144.865234"/>
       <use xlink:href="#DejaVuSans-2d" x="179.603516"/>
       <use xlink:href="#DejaVuSans-72" x="215.6875"/>
       <use xlink:href="#DejaVuSans-61" x="256.800781"/>
       <use xlink:href="#DejaVuSans-6e" x="318.080078"/>
       <use xlink:href="#DejaVuSans-64" x="381.458984"/>
       <use xlink:href="#DejaVuSans-6f" x="444.935547"/>
       <use xlink:href="#DejaVuSans-6d" x="506.117188"/>
      </g>
     </g>
    </g>
    <g id="ytick_6">
     <g id="text_23">
      <!-- Cell-line holdout -->
      <g style="fill: #262626" transform="translate(596.556797 238.821211) scale(0.165 -0.165)">
       <use xlink:href="#DejaVuSans-43"/>
       <use xlink:href="#DejaVuSans-65" x="69.824219"/>
       <use xlink:href="#DejaVuSans-6c" x="131.347656"/>
       <use xlink:href="#DejaVuSans-6c" x="159.130859"/>
       <use xlink:href="#DejaVuSans-2d" x="186.914062"/>
       <use xlink:href="#DejaVuSans-6c" x="222.998047"/>
       <use xlink:href="#DejaVuSans-69" x="250.78125"/>
       <use xlink:href="#DejaVuSans-6e" x="278.564453"/>
       <use xlink:href="#DejaVuSans-65" x="341.943359"/>
       <use xlink:href="#DejaVuSans-20" x="403.466797"/>
       <use xlink:href="#DejaVuSans-68" x="435.253906"/>
       <use xlink:href="#DejaVuSans-6f" x="498.632812"/>
       <use xlink:href="#DejaVuSans-6c" x="559.814453"/>
       <use xlink:href="#DejaVuSans-64" x="587.597656"/>
       <use xlink:href="#DejaVuSans-6f" x="651.074219"/>
       <use xlink:href="#DejaVuSans-75" x="712.255859"/>
       <use xlink:href="#DejaVuSans-74" x="775.634766"/>
      </g>
     </g>
    </g>
    <g id="ytick_7">
     <g id="text_24">
      <!-- Compound holdout -->
      <g style="fill: #262626" transform="translate(573.48 328.416211) scale(0.165 -0.165)">
       <use xlink:href="#DejaVuSans-43"/>
       <use xlink:href="#DejaVuSans-6f" x="69.824219"/>
       <use xlink:href="#DejaVuSans-6d" x="131.005859"/>
       <use xlink:href="#DejaVuSans-70" x="228.417969"/>
       <use xlink:href="#DejaVuSans-6f" x="291.894531"/>
       <use xlink:href="#DejaVuSans-75" x="353.076172"/>
       <use xlink:href="#DejaVuSans-6e" x="416.455078"/>
       <use xlink:href="#DejaVuSans-64" x="479.833984"/>
       <use xlink:href="#DejaVuSans-20" x="543.310547"/>
       <use xlink:href="#DejaVuSans-68" x="575.097656"/>
       <use xlink:href="#DejaVuSans-6f" x="638.476562"/>
       <use xlink:href="#DejaVuSans-6c" x="699.658203"/>
       <use xlink:href="#DejaVuSans-64" x="727.441406"/>
       <use xlink:href="#DejaVuSans-6f" x="790.917969"/>
       <use xlink:href="#DejaVuSans-75" x="852.099609"/>
       <use xlink:href="#DejaVuSans-74" x="915.478516"/>
      </g>
     </g>
    </g>
    <g id="ytick_8">
     <g id="text_25">
      <!-- Double cold start -->
      <g style="fill: #262626" transform="translate(589.394766 418.011211) scale(0.165 -0.165)">
       <use xlink:href="#DejaVuSans-44"/>
       <use xlink:href="#DejaVuSans-6f" x="77.001953"/>
       <use xlink:href="#DejaVuSans-75" x="138.183594"/>
       <use xlink:href="#DejaVuSans-62" x="201.5625"/>
       <use xlink:href="#DejaVuSans-6c" x="265.039062"/>
       <use xlink:href="#DejaVuSans-65" x="292.822266"/>
       <use xlink:href="#DejaVuSans-20" x="354.345703"/>
       <use xlink:href="#DejaVuSans-63" x="386.132812"/>
       <use xlink:href="#DejaVuSans-6f" x="441.113281"/>
       <use xlink:href="#DejaVuSans-6c" x="502.294922"/>
       <use xlink:href="#DejaVuSans-64" x="530.078125"/>
       <use xlink:href="#DejaVuSans-20" x="593.554688"/>
       <use xlink:href="#DejaVuSans-73" x="625.341797"/>
       <use xlink:href="#DejaVuSans-74" x="677.441406"/>
       <use xlink:href="#DejaVuSans-61" x="716.650391"/>
       <use xlink:href="#DejaVuSans-72" x="777.929688"/>
       <use xlink:href="#DejaVuSans-74" x="819.042969"/>
      </g>
     </g>
    </g>
   </g>
   <g id="patch_21">
    <path d="M 798.406936 107.1195 
L 1103.131016 107.1195 
L 1103.131016 142.9575 
L 798.406936 142.9575 
z
" clip-path="url(#p1e14cb42f5)" style="fill: #3274a1; stroke: #ffffff; stroke-width: 1.5; stroke-linejoin: miter"/>
   </g>
   <g id="patch_22">
    <path d="M 798.406936 196.7145 
L 1088.755197 196.7145 
L 1088.755197 232.5525 
L 798.406936 232.5525 
z
" clip-path="url(#p1e14cb42f5)" style="fill: #3274a1; stroke: #ffffff; stroke-width: 1.5; stroke-linejoin: miter"/>
   </g>
   <g id="patch_23">
    <path d="M 798.406936 286.3095 
L 940.622538 286.3095 
L 940.622538 322.1475 
L 798.406936 322.1475 
z
" clip-path="url(#p1e14cb42f5)" style="fill: #3274a1; stroke: #ffffff; stroke-width: 1.5; stroke-linejoin: miter"/>
   </g>
   <g id="patch_24">
    <path d="M 798.406936 375.9045 
L 925.656445 375.9045 
L 925.656445 411.7425 
L 798.406936 411.7425 
z
" clip-path="url(#p1e14cb42f5)" style="fill: #3274a1; stroke: #ffffff; stroke-width: 1.5; stroke-linejoin: miter"/>
   </g>
   <g id="patch_25">
    <path d="M 798.406936 142.9575 
L 1067.094953 142.9575 
L 1067.094953 178.7955 
L 798.406936 178.7955 
z
" clip-path="url(#p1e14cb42f5)" style="fill: #40923a; stroke: #ffffff; stroke-width: 1.5; stroke-linejoin: miter"/>
   </g>
   <g id="patch_26">
    <path d="M 798.406936 232.5525 
L 1041.444511 232.5525 
L 1041.444511 268.3905 
L 798.406936 268.3905 
z
" clip-path="url(#p1e14cb42f5)" style="fill: #40923a; stroke: #ffffff; stroke-width: 1.5; stroke-linejoin: miter"/>
   </g>
   <g id="patch_27">
    <path d="M 798.406936 322.1475 
L 786.199639 322.1475 
L 786.199639 357.9855 
L 798.406936 357.9855 
z
" clip-path="url(#p1e14cb42f5)" style="fill: #40923a; stroke: #ffffff; stroke-width: 1.5; stroke-linejoin: miter"/>
   </g>
   <g id="patch_28">
    <path d="M 798.406936 411.7425 
L 760.631016 411.7425 
L 760.631016 447.5805 
L 798.406936 447.5805 
z
" clip-path="url(#p1e14cb42f5)" style="fill: #40923a; stroke: #ffffff; stroke-width: 1.5; stroke-linejoin: miter"/>
   </g>
   <g id="patch_29">
    <path d="M 798.406936 142.9575 
L 798.406936 142.9575 
L 798.406936 142.9575 
L 798.406936 142.9575 
z
" clip-path="url(#p1e14cb42f5)" style="fill: #3274a1; stroke: #ffffff; stroke-width: 1.5; stroke-linejoin: miter"/>
   </g>
   <g id="patch_30">
    <path d="M 798.406936 142.9575 
L 798.406936 142.9575 
L 798.406936 142.9575 
L 798.406936 142.9575 
z
" clip-path="url(#p1e14cb42f5)" style="fill: #40923a; stroke: #ffffff; stroke-width: 1.5; stroke-linejoin: miter"/>
   </g>
   <g id="line2d_21">
    <path clip-path="url(#p1e14cb42f5)" style="fill: none; stroke: #424242; stroke-width: 3.375; stroke-linecap: round"/>
   </g>
   <g id="line2d_22">
    <path clip-path="url(#p1e14cb42f5)" style="fill: none; stroke: #424242; stroke-width: 3.375; stroke-linecap: round"/>
   </g>
   <g id="line2d_23">
    <path clip-path="url(#p1e14cb42f5)" style="fill: none; stroke: #424242; stroke-width: 3.375; stroke-linecap: round"/>
   </g>
   <g id="line2d_24">
    <path clip-path="url(#p1e14cb42f5)" style="fill: none; stroke: #424242; stroke-width: 3.375; stroke-linecap: round"/>
   </g>
   <g id="line2d_25">
    <path clip-path="url(#p1e14cb42f5)" style="fill: none; stroke: #424242; stroke-width: 3.375; stroke-linecap: round"/>
   </g>
   <g id="line2d_26">
    <path clip-path="url(#p1e14cb42f5)" style="fill: none; stroke: #424242; stroke-width: 3.375; stroke-linecap: round"/>
   </g>
   <g id="line2d_27">
    <path clip-path="url(#p1e14cb42f5)" style="fill: none; stroke: #424242; stroke-width: 3.375; stroke-linecap: round"/>
   </g>
   <g id="line2d_28">
    <path clip-path="url(#p1e14cb42f5)" style="fill: none; stroke: #424242; stroke-width: 3.375; stroke-linecap: round"/>
   </g>
   <g id="line2d_29">
    <path d="M 798.406936 456.54 
L 798.406936 98.16 
" clip-path="url(#p1e14cb42f5)" style="fill: none; stroke-dasharray: 4.81,2.08; stroke-dashoffset: 0; stroke: #444444; stroke-width: 1.3"/>
   </g>
   <g id="patch_31">
    <path d="M 743.506016 456.54 
L 743.506016 98.16 
" style="fill: none; stroke: #cccccc; stroke-width: 1.875; stroke-linejoin: miter; stroke-linecap: square"/>
   </g>
   <g id="patch_32">
    <path d="M 1120.256016 456.54 
L 1120.256016 98.16 
" style="fill: none; stroke: #cccccc; stroke-width: 1.875; stroke-linejoin: miter; stroke-linecap: square"/>
   </g>
   <g id="patch_33">
    <path d="M 743.506016 456.54 
L 1120.256016 456.54 
" style="fill: none; stroke: #cccccc; stroke-width: 1.875; stroke-linejoin: miter; stroke-linecap: square"/>
   </g>
   <g id="patch_34">
    <path d="M 743.506016 98.16 
L 1120.256016 98.16 
" style="fill: none; stroke: #cccccc; stroke-width: 1.875; stroke-linejoin: miter; stroke-linecap: square"/>
   </g>
   <g id="text_26">
    <!-- B. Correlation and explained variance collapse for unseen compounds -->
    <g style="fill: #262626" transform="translate(616.353672 92.16) scale(0.18 -0.18)">
     <defs>
      <path id="DejaVuSans-42" d="M 1259 2228 
L 1259 519 
L 2272 519 
Q 2781 519 3026 730 
Q 3272 941 3272 1375 
Q 3272 1813 3026 2020 
Q 2781 2228 2272 2228 
L 1259 2228 
z
M 1259 4147 
L 1259 2741 
L 2194 2741 
Q 2656 2741 2882 2914 
Q 3109 3088 3109 3444 
Q 3109 3797 2882 3972 
Q 2656 4147 2194 4147 
L 1259 4147 
z
M 628 4666 
L 2241 4666 
Q 2963 4666 3353 4366 
Q 3744 4066 3744 3513 
Q 3744 3084 3544 2831 
Q 3344 2578 2956 2516 
Q 3422 2416 3680 2098 
Q 3938 1781 3938 1306 
Q 3938 681 3513 340 
Q 3088 0 2303 0 
L 628 0 
L 628 4666 
z
" transform="scale(0.015625)"/>
      <path id="DejaVuSans-78" d="M 3513 3500 
L 2247 1797 
L 3578 0 
L 2900 0 
L 1881 1375 
L 863 0 
L 184 0 
L 1544 1831 
L 300 3500 
L 978 3500 
L 1906 2253 
L 2834 3500 
L 3513 3500 
z
" transform="scale(0.015625)"/>
     </defs>
     <use xlink:href="#DejaVuSans-42"/>
     <use xlink:href="#DejaVuSans-2e" x="68.603516"/>
     <use xlink:href="#DejaVuSans-20" x="100.390625"/>
     <use xlink:href="#DejaVuSans-43" x="132.177734"/>
     <use xlink:href="#DejaVuSans-6f" x="202.001953"/>
     <use xlink:href="#DejaVuSans-72" x="263.183594"/>
     <use xlink:href="#DejaVuSans-72" x="302.546875"/>
     <use xlink:href="#DejaVuSans-65" x="341.410156"/>
     <use xlink:href="#DejaVuSans-6c" x="402.933594"/>
     <use xlink:href="#DejaVuSans-61" x="430.716797"/>
     <use xlink:href="#DejaVuSans-74" x="491.996094"/>
     <use xlink:href="#DejaVuSans-69" x="531.205078"/>
     <use xlink:href="#DejaVuSans-6f" x="558.988281"/>
     <use xlink:href="#DejaVuSans-6e" x="620.169922"/>
     <use xlink:href="#DejaVuSans-20" x="683.548828"/>
     <use xlink:href="#DejaVuSans-61" x="715.335938"/>
     <use xlink:href="#DejaVuSans-6e" x="776.615234"/>
     <use xlink:href="#DejaVuSans-64" x="839.994141"/>
     <use xlink:href="#DejaVuSans-20" x="903.470703"/>
     <use xlink:href="#DejaVuSans-65" x="935.257812"/>
     <use xlink:href="#DejaVuSans-78" x="995.03125"/>
     <use xlink:href="#DejaVuSans-70" x="1054.210938"/>
     <use xlink:href="#DejaVuSans-6c" x="1117.6875"/>
     <use xlink:href="#DejaVuSans-61" x="1145.470703"/>
     <use xlink:href="#DejaVuSans-69" x="1206.75"/>
     <use xlink:href="#DejaVuSans-6e" x="1234.533203"/>
     <use xlink:href="#DejaVuSans-65" x="1297.912109"/>
     <use xlink:href="#DejaVuSans-64" x="1359.435547"/>
     <use xlink:href="#DejaVuSans-20" x="1422.912109"/>
     <use xlink:href="#DejaVuSans-76" x="1454.699219"/>
     <use xlink:href="#DejaVuSans-61" x="1513.878906"/>
     <use xlink:href="#DejaVuSans-72" x="1575.158203"/>
     <use xlink:href="#DejaVuSans-69" x="1616.271484"/>
     <use xlink:href="#DejaVuSans-61" x="1644.054688"/>
     <use xlink:href="#DejaVuSans-6e" x="1705.333984"/>
     <use xlink:href="#DejaVuSans-63" x="1768.712891"/>
     <use xlink:href="#DejaVuSans-65" x="1823.693359"/>
     <use xlink:href="#DejaVuSans-20" x="1885.216797"/>
     <use xlink:href="#DejaVuSans-63" x="1917.003906"/>
     <use xlink:href="#DejaVuSans-6f" x="1971.984375"/>
     <use xlink:href="#DejaVuSans-6c" x="2033.166016"/>
     <use xlink:href="#DejaVuSans-6c" x="2060.949219"/>
     <use xlink:href="#DejaVuSans-61" x="2088.732422"/>
     <use xlink:href="#DejaVuSans-70" x="2150.011719"/>
     <use xlink:href="#DejaVuSans-73" x="2213.488281"/>
     <use xlink:href="#DejaVuSans-65" x="2265.587891"/>
     <use xlink:href="#DejaVuSans-20" x="2327.111328"/>
     <use xlink:href="#DejaVuSans-66" x="2358.898438"/>
     <use xlink:href="#DejaVuSans-6f" x="2394.103516"/>
     <use xlink:href="#DejaVuSans-72" x="2455.285156"/>
     <use xlink:href="#DejaVuSans-20" x="2496.398438"/>
     <use xlink:href="#DejaVuSans-75" x="2528.185547"/>
     <use xlink:href="#DejaVuSans-6e" x="2591.564453"/>
     <use xlink:href="#DejaVuSans-73" x="2654.943359"/>
     <use xlink:href="#DejaVuSans-65" x="2707.042969"/>
     <use xlink:href="#DejaVuSans-65" x="2768.566406"/>
     <use xlink:href="#DejaVuSans-6e" x="2830.089844"/>
     <use xlink:href="#DejaVuSans-20" x="2893.46875"/>
     <use xlink:href="#DejaVuSans-63" x="2925.255859"/>
     <use xlink:href="#DejaVuSans-6f" x="2980.236328"/>
     <use xlink:href="#DejaVuSans-6d" x="3041.417969"/>
     <use xlink:href="#DejaVuSans-70" x="3138.830078"/>
     <use xlink:href="#DejaVuSans-6f" x="3202.306641"/>
     <use xlink:href="#DejaVuSans-75" x="3263.488281"/>
     <use xlink:href="#DejaVuSans-6e" x="3326.867188"/>
     <use xlink:href="#DejaVuSans-64" x="3390.246094"/>
     <use xlink:href="#DejaVuSans-73" x="3453.722656"/>
    </g>
   </g>
   <g id="legend_2">
    <g id="patch_35">
     <path d="M 978.332812 448.29 
L 1108.706016 448.29 
Q 1112.006016 448.29 1112.006016 444.99 
L 1112.006016 398.202188 
Q 1112.006016 394.902188 1108.706016 394.902188 
L 978.332812 394.902188 
Q 975.032812 394.902188 975.032812 398.202188 
L 975.032812 444.99 
Q 975.032812 448.29 978.332812 448.29 
z
" style="fill: #ffffff; opacity: 0.8; stroke: #cccccc; stroke-width: 1.5; stroke-linejoin: miter"/>
    </g>
    <g id="patch_36">
     <path d="M 981.632812 414.039609 
L 1014.632812 414.039609 
L 1014.632812 402.489609 
L 981.632812 402.489609 
z
" style="fill: #3274a1; stroke: #ffffff; stroke-width: 1.5; stroke-linejoin: miter"/>
    </g>
    <g id="text_27">
     <!-- Pearson r -->
     <g style="fill: #262626" transform="translate(1027.832812 414.039609) scale(0.165 -0.165)">
      <use xlink:href="#DejaVuSans-50"/>
      <use xlink:href="#DejaVuSans-65" x="56.677734"/>
      <use xlink:href="#DejaVuSans-61" x="118.201172"/>
      <use xlink:href="#DejaVuSans-72" x="179.480469"/>
      <use xlink:href="#DejaVuSans-73" x="220.59375"/>
      <use xlink:href="#DejaVuSans-6f" x="272.693359"/>
      <use xlink:href="#DejaVuSans-6e" x="333.875"/>
      <use xlink:href="#DejaVuSans-20" x="397.253906"/>
      <use xlink:href="#DejaVuSans-72" x="429.041016"/>
     </g>
    </g>
    <g id="patch_37">
     <path d="M 981.632812 438.258516 
L 1014.632812 438.258516 
L 1014.632812 426.708516 
L 981.632812 426.708516 
z
" style="fill: #40923a; stroke: #ffffff; stroke-width: 1.5; stroke-linejoin: miter"/>
    </g>
    <g id="text_28">
     <!-- R² -->
     <g style="fill: #262626" transform="translate(1027.832812 438.258516) scale(0.165 -0.165)">
      <defs>
       <path id="DejaVuSans-b2" d="M 838 2444 
L 2163 2444 
L 2163 2088 
L 294 2088 
L 294 2431 
Q 400 2528 597 2703 
Q 1672 3656 1672 3950 
Q 1672 4156 1509 4282 
Q 1347 4409 1081 4409 
Q 919 4409 728 4354 
Q 538 4300 313 4191 
L 313 4575 
Q 553 4663 761 4706 
Q 969 4750 1147 4750 
Q 1600 4750 1872 4544 
Q 2144 4338 2144 4000 
Q 2144 3566 1109 2678 
Q 934 2528 838 2444 
z
" transform="scale(0.015625)"/>
      </defs>
      <use xlink:href="#DejaVuSans-52"/>
      <use xlink:href="#DejaVuSans-b2" x="69.482422"/>
     </g>
    </g>
   </g>
  </g>
  <g id="text_29">
   <!-- Leakage-safe ridge benchmark comparison across saved GDSC split regimes -->
   <g style="fill: #262626" transform="translate(217.707891 20.877188) scale(0.18 -0.18)">
    <defs>
     <path id="DejaVuSans-4c" d="M 628 4666 
L 1259 4666 
L 1259 531 
L 3531 531 
L 3531 0 
L 628 0 
L 628 4666 
z
" transform="scale(0.015625)"/>
     <path id="DejaVuSans-47" d="M 3809 666 
L 3809 1919 
L 2778 1919 
L 2778 2438 
L 4434 2438 
L 4434 434 
Q 4069 175 3628 42 
Q 3188 -91 2688 -91 
Q 1594 -91 976 548 
Q 359 1188 359 2328 
Q 359 3472 976 4111 
Q 1594 4750 2688 4750 
Q 3144 4750 3555 4637 
Q 3966 4525 4313 4306 
L 4313 3634 
Q 3963 3931 3569 4081 
Q 3175 4231 2741 4231 
Q 1884 4231 1454 3753 
Q 1025 3275 1025 2328 
Q 1025 1384 1454 906 
Q 1884 428 2741 428 
Q 3075 428 3337 486 
Q 3600 544 3809 666 
z
" transform="scale(0.015625)"/>
    </defs>
    <use xlink:href="#DejaVuSans-4c"/>
    <use xlink:href="#DejaVuSans-65" x="53.962891"/>
    <use xlink:href="#DejaVuSans-61" x="115.486328"/>
    <use xlink:href="#DejaVuSans-6b" x="176.765625"/>
    <use xlink:href="#DejaVuSans-61" x="232.925781"/>
    <use xlink:href="#DejaVuSans-67" x="294.205078"/>
    <use xlink:href="#DejaVuSans-65" x="357.681641"/>
    <use xlink:href="#DejaVuSans-2d" x="419.205078"/>
    <use xlink:href="#DejaVuSans-73" x="455.289062"/>
    <use xlink:href="#DejaVuSans-61" x="507.388672"/>
    <use xlink:href="#DejaVuSans-66" x="568.667969"/>
    <use xlink:href="#DejaVuSans-65" x="603.873047"/>
    <use xlink:href="#DejaVuSans-20" x="665.396484"/>
    <use xlink:href="#DejaVuSans-72" x="697.183594"/>
    <use xlink:href="#DejaVuSans-69" x="738.296875"/>
    <use xlink:href="#DejaVuSans-64" x="766.080078"/>
    <use xlink:href="#DejaVuSans-67" x="829.556641"/>
    <use xlink:href="#DejaVuSans-65" x="893.033203"/>
    <use xlink:href="#DejaVuSans-20" x="954.556641"/>
    <use xlink:href="#DejaVuSans-62" x="986.34375"/>
    <use xlink:href="#DejaVuSans-65" x="1049.820312"/>
    <use xlink:href="#DejaVuSans-6e" x="1111.34375"/>
    <use xlink:href="#DejaVuSans-63" x="1174.722656"/>
    <use xlink:href="#DejaVuSans-68" x="1229.703125"/>
    <use xlink:href="#DejaVuSans-6d" x="1293.082031"/>
    <use xlink:href="#DejaVuSans-61" x="1390.494141"/>
    <use xlink:href="#DejaVuSans-72" x="1451.773438"/>
    <use xlink:href="#DejaVuSans-6b" x="1492.886719"/>
    <use xlink:href="#DejaVuSans-20" x="1550.796875"/>
    <use xlink:href="#DejaVuSans-63" x="1582.583984"/>
    <use xlink:href="#DejaVuSans-6f" x="1637.564453"/>
    <use xlink:href="#DejaVuSans-6d" x="1698.746094"/>
    <use xlink:href="#DejaVuSans-70" x="1796.158203"/>
    <use xlink:href="#DejaVuSans-61" x="1859.634766"/>
    <use xlink:href="#DejaVuSans-72" x="1920.914062"/>
    <use xlink:href="#DejaVuSans-69" x="1962.027344"/>
    <use xlink:href="#DejaVuSans-73" x="1989.810547"/>
    <use xlink:href="#DejaVuSans-6f" x="2041.910156"/>
    <use xlink:href="#DejaVuSans-6e" x="2103.091797"/>
    <use xlink:href="#DejaVuSans-20" x="2166.470703"/>
    <use xlink:href="#DejaVuSans-61" x="2198.257812"/>
    <use xlink:href="#DejaVuSans-63" x="2259.537109"/>
    <use xlink:href="#DejaVuSans-72" x="2314.517578"/>
    <use xlink:href="#DejaVuSans-6f" x="2353.380859"/>
    <use xlink:href="#DejaVuSans-73" x="2414.5625"/>
    <use xlink:href="#DejaVuSans-73" x="2466.662109"/>
    <use xlink:href="#DejaVuSans-20" x="2518.761719"/>
    <use xlink:href="#DejaVuSans-73" x="2550.548828"/>
    <use xlink:href="#DejaVuSans-61" x="2602.648438"/>
    <use xlink:href="#DejaVuSans-76" x="2663.927734"/>
    <use xlink:href="#DejaVuSans-65" x="2723.107422"/>
    <use xlink:href="#DejaVuSans-64" x="2784.630859"/>
    <use xlink:href="#DejaVuSans-20" x="2848.107422"/>
    <use xlink:href="#DejaVuSans-47" x="2879.894531"/>
    <use xlink:href="#DejaVuSans-44" x="2957.384766"/>
    <use xlink:href="#DejaVuSans-53" x="3034.386719"/>
    <use xlink:href="#DejaVuSans-43" x="3097.863281"/>
    <use xlink:href="#DejaVuSans-20" x="3167.6875"/>
    <use xlink:href="#DejaVuSans-73" x="3199.474609"/>
    <use xlink:href="#DejaVuSans-70" x="3251.574219"/>
    <use xlink:href="#DejaVuSans-6c" x="3315.050781"/>
    <use xlink:href="#DejaVuSans-69" x="3342.833984"/>
    <use xlink:href="#DejaVuSans-74" x="3370.617188"/>
    <use xlink:href="#DejaVuSans-20" x="3409.826172"/>
    <use xlink:href="#DejaVuSans-72" x="3441.613281"/>
    <use xlink:href="#DejaVuSans-65" x="3480.476562"/>
    <use xlink:href="#DejaVuSans-67" x="3542"/>
    <use xlink:href="#DejaVuSans-69" x="3605.476562"/>
    <use xlink:href="#DejaVuSans-6d" x="3633.259766"/>
    <use xlink:href="#DejaVuSans-65" x="3730.671875"/>
    <use xlink:href="#DejaVuSans-73" x="3792.195312"/>
   </g>
  </g>
 </g>
 <defs>
  <clipPath id="pc982840d5a">
   <rect x="177.226016" y="98.16" width="376.75" height="358.38"/>
  </clipPath>
  <clipPath id="p1e14cb42f5">
   <rect x="743.506016" y="98.16" width="376.75" height="358.38"/>
  </clipPath>
 </defs>
</svg>
