<?xml version="1.0" encoding="utf-8" standalone="no"?>
<!DOCTYPE svg PUBLIC "-//W3C//DTD SVG 1.1//EN"
  "http://www.w3.org/Graphics/SVG/1.1/DTD/svg11.dtd">
<svg xmlns:xlink="http://www.w3.org/1999/xlink" width="983.676797pt" height="407.621719pt" viewBox="0 0 983.676797 407.621719" xmlns="http://www.w3.org/2000/svg" version="1.1">
 <metadata>
  <rdf:RDF xmlns:dc="http://purl.org/dc/elements/1.1/" xmlns:cc="http://creativecommons.org/ns#" xmlns:rdf="http://www.w3.org/1999/02/22-rdf-syntax-ns#">
   <cc:Work>
    <dc:type rdf:resource="http://purl.org/dc/dcmitype/StillImage"/>
    <dc:date>2026-04-04T17:12:22.650026</dc:date>
    <dc:format>image/svg+xml</dc:format>
    <dc:creator>
     <cc:Agent>
      <dc:title>Matplotlib v3.7.5, https://matplotlib.org/</dc:title>
     </cc:Agent>
    </dc:creator>
   </cc:Work>
  </rdf:RDF>
 </metadata>
 <defs>
  <style type="text/css">*{stroke-linejoin: round; stroke-linecap: butt}</style>
 </defs>
 <g id="figure_1">
  <g id="patch_1">
   <path d="M 0 407.621719 
L 983.676797 407.621719 
L 983.676797 0 
L 0 0 
z
" style="fill: #ffffff"/>
  </g>
  <g id="axes_1">
   <g id="patch_2">
    <path d="M 172.136797 256.597187 
L 976.476797 256.597187 
L 976.476797 34.877187 
L 172.136797 34.877187 
z
" style="fill: #ffffff"/>
   </g>
   <g id="matplotlib.axis_1">
    <g id="xtick_1">
     <g id="line2d_1">
      <path d="M 229.589654 256.597187 
L 229.589654 34.877187 
" clip-path="url(#p8f967a0645)" style="fill: none; stroke: #cccccc; stroke-width: 1.5; stroke-linecap: round"/>
     </g>
     <g id="text_1">
      <!-- Cross-resource -->
      <g style="fill: #262626" transform="translate(224.904427 391.62) rotate(-90) scale(0.165 -0.165)">
       <defs>
        <path id="DejaVuSans-43" d="M 4122 4306 
L 4122 3641 
Q 3803 3938 3442 4084 
Q 3081 4231 2675 4231 
Q 1875 4231 1450 3742 
Q 1025 3253 1025 2328 
Q 1025 1406 1450 917 
Q 1875 428 2675 428 
Q 3081 428 3442 575 
Q 3803 722 4122 1019 
L 4122 359 
Q 3791 134 3420 21 
Q 3050 -91 2638 -91 
Q 1578 -91 968 557 
Q 359 1206 359 2328 
Q 359 3453 968 4101 
Q 1578 4750 2638 4750 
Q 3056 4750 3426 4639 
Q 3797 4528 4122 4306 
z
" transform="scale(0.015625)"/>
        <path id="DejaVuSans-72" d="M 2631 2963 
Q 2534 3019 2420 3045 
Q 2306 3072 2169 3072 
Q 1681 3072 1420 2755 
Q 1159 2438 1159 1844 
L 1159 0 
L 581 0 
L 581 3500 
L 1159 3500 
L 1159 2956 
Q 1341 3275 1631 3429 
Q 1922 3584 2338 3584 
Q 2397 3584 2469 3576 
Q 2541 3569 2628 3553 
L 2631 2963 
z
" transform="scale(0.015625)"/>
        <path id="DejaVuSans-6f" d="M 1959 3097 
Q 1497 3097 1228 2736 
Q 959 2375 959 1747 
Q 959 1119 1226 758 
Q 1494 397 1959 397 
Q 2419 397 2687 759 
Q 2956 1122 2956 1747 
Q 2956 2369 2687 2733 
Q 2419 3097 1959 3097 
z
M 1959 3584 
Q 2709 3584 3137 3096 
Q 3566 2609 3566 1747 
Q 3566 888 3137 398 
Q 2709 -91 1959 -91 
Q 1206 -91 779 398 
Q 353 888 353 1747 
Q 353 2609 779 3096 
Q 1206 3584 1959 3584 
z
" transform="scale(0.015625)"/>
        <path id="DejaVuSans-73" d="M 2834 3397 
L 2834 2853 
Q 2591 2978 2328 3040 
Q 2066 3103 1784 3103 
Q 1356 3103 1142 2972 
Q 928 2841 928 2578 
Q 928 2378 1081 2264 
Q 1234 2150 1697 2047 
L 1894 2003 
Q 2506 1872 2764 1633 
Q 3022 1394 3022 966 
Q 3022 478 2636 193 
Q 2250 -91 1575 -91 
Q 1294 -91 989 -36 
Q 684 19 347 128 
L 347 722 
Q 666 556 975 473 
Q 1284 391 1588 391 
Q 1994 391 2212 530 
Q 2431 669 2431 922 
Q 2431 1156 2273 1281 
Q 2116 1406 1581 1522 
L 1381 1569 
Q 847 1681 609 1914 
Q 372 2147 372 2553 
Q 372 3047 722 3315 
Q 1072 3584 1716 3584 
Q 2034 3584 2315 3537 
Q 2597 3491 2834 3397 
z
" transform="scale(0.015625)"/>
        <path id="DejaVuSans-2d" d="M 313 2009 
L 1997 2009 
L 1997 1497 
L 313 1497 
L 313 2009 
z
" transform="scale(0.015625)"/>
        <path id="DejaVuSans-65" d="M 3597 1894 
L 3597 1613 
L 953 1613 
Q 991 1019 1311 708 
Q 1631 397 2203 397 
Q 2534 397 2845 478 
Q 3156 559 3463 722 
L 3463 178 
Q 3153 47 2828 -22 
Q 2503 -91 2169 -91 
Q 1331 -91 842 396 
Q 353 884 353 1716 
Q 353 2575 817 3079 
Q 1281 3584 2069 3584 
Q 2775 3584 3186 3129 
Q 3597 2675 3597 1894 
z
M 3022 2063 
Q 3016 2534 2758 2815 
Q 2500 3097 2075 3097 
Q 1594 3097 1305 2825 
Q 1016 2553 972 2059 
L 3022 2063 
z
" transform="scale(0.015625)"/>
        <path id="DejaVuSans-75" d="M 544 1381 
L 544 3500 
L 1119 3500 
L 1119 1403 
Q 1119 906 1312 657 
Q 1506 409 1894 409 
Q 2359 409 2629 706 
Q 2900 1003 2900 1516 
L 2900 3500 
L 3475 3500 
L 3475 0 
L 2900 0 
L 2900 538 
Q 2691 219 2414 64 
Q 2138 -91 1772 -91 
Q 1169 -91 856 284 
Q 544 659 544 1381 
z
M 1991 3584 
L 1991 3584 
z
" transform="scale(0.015625)"/>
        <path id="DejaVuSans-63" d="M 3122 3366 
L 3122 2828 
Q 2878 2963 2633 3030 
Q 2388 3097 2138 3097 
Q 1578 3097 1268 2742 
Q 959 2388 959 1747 
Q 959 1106 1268 751 
Q 1578 397 2138 397 
Q 2388 397 2633 464 
Q 2878 531 3122 666 
L 3122 134 
Q 2881 22 2623 -34 
Q 2366 -91 2075 -91 
Q 1284 -91 818 406 
Q 353 903 353 1747 
Q 353 2603 823 3093 
Q 1294 3584 2113 3584 
Q 2378 3584 2631 3529 
Q 2884 3475 3122 3366 
z
" transform="scale(0.015625)"/>
       </defs>
       <use xlink:href="#DejaVuSans-43"/>
       <use xlink:href="#DejaVuSans-72" x="69.824219"/>
       <use xlink:href="#DejaVuSans-6f" x="108.6875"/>
       <use xlink:href="#DejaVuSans-73" x="169.869141"/>
       <use xlink:href="#DejaVuSans-73" x="221.96875"/>
       <use xlink:href="#DejaVuSans-2d" x="274.068359"/>
       <use xlink:href="#DejaVuSans-72" x="310.152344"/>
       <use xlink:href="#DejaVuSans-65" x="349.015625"/>
       <use xlink:href="#DejaVuSans-73" x="410.539062"/>
       <use xlink:href="#DejaVuSans-6f" x="462.638672"/>
       <use xlink:href="#DejaVuSans-75" x="523.820312"/>
       <use xlink:href="#DejaVuSans-72" x="587.199219"/>
       <use xlink:href="#DejaVuSans-63" x="626.0625"/>
       <use xlink:href="#DejaVuSans-65" x="681.042969"/>
      </g>
      <!-- harmonization -->
      <g style="fill: #262626" transform="translate(243.380818 389.682539) rotate(-90) scale(0.165 -0.165)">
       <defs>
        <path id="DejaVuSans-68" d="M 3513 2113 
L 3513 0 
L 2938 0 
L 2938 2094 
Q 2938 2591 2744 2837 
Q 2550 3084 2163 3084 
Q 1697 3084 1428 2787 
Q 1159 2491 1159 1978 
L 1159 0 
L 581 0 
L 581 4863 
L 1159 4863 
L 1159 2956 
Q 1366 3272 1645 3428 
Q 1925 3584 2291 3584 
Q 2894 3584 3203 3211 
Q 3513 2838 3513 2113 
z
" transform="scale(0.015625)"/>
        <path id="DejaVuSans-61" d="M 2194 1759 
Q 1497 1759 1228 1600 
Q 959 1441 959 1056 
Q 959 750 1161 570 
Q 1363 391 1709 391 
Q 2188 391 2477 730 
Q 2766 1069 2766 1631 
L 2766 1759 
L 2194 1759 
z
M 3341 1997 
L 3341 0 
L 2766 0 
L 2766 531 
Q 2569 213 2275 61 
Q 1981 -91 1556 -91 
Q 1019 -91 701 211 
Q 384 513 384 1019 
Q 384 1609 779 1909 
Q 1175 2209 1959 2209 
L 2766 2209 
L 2766 2266 
Q 2766 2663 2505 2880 
Q 2244 3097 1772 3097 
Q 1472 3097 1187 3025 
Q 903 2953 641 2809 
L 641 3341 
Q 956 3463 1253 3523 
Q 1550 3584 1831 3584 
Q 2591 3584 2966 3190 
Q 3341 2797 3341 1997 
z
" transform="scale(0.015625)"/>
        <path id="DejaVuSans-6d" d="M 3328 2828 
Q 3544 3216 3844 3400 
Q 4144 3584 4550 3584 
Q 5097 3584 5394 3201 
Q 5691 2819 5691 2113 
L 5691 0 
L 5113 0 
L 5113 2094 
Q 5113 2597 4934 2840 
Q 4756 3084 4391 3084 
Q 3944 3084 3684 2787 
Q 3425 2491 3425 1978 
L 3425 0 
L 2847 0 
L 2847 2094 
Q 2847 2600 2669 2842 
Q 2491 3084 2119 3084 
Q 1678 3084 1418 2786 
Q 1159 2488 1159 1978 
L 1159 0 
L 581 0 
L 581 3500 
L 1159 3500 
L 1159 2956 
Q 1356 3278 1631 3431 
Q 1906 3584 2284 3584 
Q 2666 3584 2933 3390 
Q 3200 3197 3328 2828 
z
" transform="scale(0.015625)"/>
        <path id="DejaVuSans-6e" d="M 3513 2113 
L 3513 0 
L 2938 0 
L 2938 2094 
Q 2938 2591 2744 2837 
Q 2550 3084 2163 3084 
Q 1697 3084 1428 2787 
Q 1159 2491 1159 1978 
L 1159 0 
L 581 0 
L 581 3500 
L 1159 3500 
L 1159 2956 
Q 1366 3272 1645 3428 
Q 1925 3584 2291 3584 
Q 2894 3584 3203 3211 
Q 3513 2838 3513 2113 
z
" transform="scale(0.015625)"/>
        <path id="DejaVuSans-69" d="M 603 3500 
L 1178 3500 
L 1178 0 
L 603 0 
L 603 3500 
z
M 603 4863 
L 1178 4863 
L 1178 4134 
L 603 4134 
L 603 4863 
z
" transform="scale(0.015625)"/>
        <path id="DejaVuSans-7a" d="M 353 3500 
L 3084 3500 
L 3084 2975 
L 922 459 
L 3084 459 
L 3084 0 
L 275 0 
L 275 525 
L 2438 3041 
L 353 3041 
L 353 3500 
z
" transform="scale(0.015625)"/>
        <path id="DejaVuSans-74" d="M 1172 4494 
L 1172 3500 
L 2356 3500 
L 2356 3053 
L 1172 3053 
L 1172 1153 
Q 1172 725 1289 603 
Q 1406 481 1766 481 
L 2356 481 
L 2356 0 
L 1766 0 
Q 1100 0 847 248 
Q 594 497 594 1153 
L 594 3053 
L 172 3053 
L 172 3500 
L 594 3500 
L 594 4494 
L 1172 4494 
z
" transform="scale(0.015625)"/>
       </defs>
       <use xlink:href="#DejaVuSans-68"/>
       <use xlink:href="#DejaVuSans-61" x="63.378906"/>
       <use xlink:href="#DejaVuSans-72" x="124.658203"/>
       <use xlink:href="#DejaVuSans-6d" x="164.021484"/>
       <use xlink:href="#DejaVuSans-6f" x="261.433594"/>
       <use xlink:href="#DejaVuSans-6e" x="322.615234"/>
       <use xlink:href="#DejaVuSans-69" x="385.994141"/>
       <use xlink:href="#DejaVuSans-7a" x="413.777344"/>
       <use xlink:href="#DejaVuSans-61" x="466.267578"/>
       <use xlink:href="#DejaVuSans-74" x="527.546875"/>
       <use xlink:href="#DejaVuSans-69" x="566.755859"/>
       <use xlink:href="#DejaVuSans-6f" x="594.539062"/>
       <use xlink:href="#DejaVuSans-6e" x="655.720703"/>
      </g>
     </g>
    </g>
    <g id="xtick_2">
     <g id="line2d_2">
      <path d="M 344.495368 256.597187 
L 344.495368 34.877187 
" clip-path="url(#p8f967a0645)" style="fill: none; stroke: #cccccc; stroke-width: 1.5; stroke-linecap: round"/>
     </g>
     <g id="text_2">
      <!-- Public inference -->
      <g style="fill: #262626" transform="translate(339.810142 400.421719) rotate(-90) scale(0.165 -0.165)">
       <defs>
        <path id="DejaVuSans-50" d="M 1259 4147 
L 1259 2394 
L 2053 2394 
Q 2494 2394 2734 2622 
Q 2975 2850 2975 3272 
Q 2975 3691 2734 3919 
Q 2494 4147 2053 4147 
L 1259 4147 
z
M 628 4666 
L 2053 4666 
Q 2838 4666 3239 4311 
Q 3641 3956 3641 3272 
Q 3641 2581 3239 2228 
Q 2838 1875 2053 1875 
L 1259 1875 
L 1259 0 
L 628 0 
L 628 4666 
z
" transform="scale(0.015625)"/>
        <path id="DejaVuSans-62" d="M 3116 1747 
Q 3116 2381 2855 2742 
Q 2594 3103 2138 3103 
Q 1681 3103 1420 2742 
Q 1159 2381 1159 1747 
Q 1159 1113 1420 752 
Q 1681 391 2138 391 
Q 2594 391 2855 752 
Q 3116 1113 3116 1747 
z
M 1159 2969 
Q 1341 3281 1617 3432 
Q 1894 3584 2278 3584 
Q 2916 3584 3314 3078 
Q 3713 2572 3713 1747 
Q 3713 922 3314 415 
Q 2916 -91 2278 -91 
Q 1894 -91 1617 61 
Q 1341 213 1159 525 
L 1159 0 
L 581 0 
L 581 4863 
L 1159 4863 
L 1159 2969 
z
" transform="scale(0.015625)"/>
        <path id="DejaVuSans-6c" d="M 603 4863 
L 1178 4863 
L 1178 0 
L 603 0 
L 603 4863 
z
" transform="scale(0.015625)"/>
        <path id="DejaVuSans-20" transform="scale(0.015625)"/>
        <path id="DejaVuSans-66" d="M 2375 4863 
L 2375 4384 
L 1825 4384 
Q 1516 4384 1395 4259 
Q 1275 4134 1275 3809 
L 1275 3500 
L 2222 3500 
L 2222 3053 
L 1275 3053 
L 1275 0 
L 697 0 
L 697 3053 
L 147 3053 
L 147 3500 
L 697 3500 
L 697 3744 
Q 697 4328 969 4595 
Q 1241 4863 1831 4863 
L 2375 4863 
z
" transform="scale(0.015625)"/>
       </defs>
       <use xlink:href="#DejaVuSans-50"/>
       <use xlink:href="#DejaVuSans-75" x="58.552734"/>
       <use xlink:href="#DejaVuSans-62" x="121.931641"/>
       <use xlink:href="#DejaVuSans-6c" x="185.408203"/>
       <use xlink:href="#DejaVuSans-69" x="213.191406"/>
       <use xlink:href="#DejaVuSans-63" x="240.974609"/>
       <use xlink:href="#DejaVuSans-20" x="295.955078"/>
       <use xlink:href="#DejaVuSans-69" x="327.742188"/>
       <use xlink:href="#DejaVuSans-6e" x="355.525391"/>
       <use xlink:href="#DejaVuSans-66" x="418.904297"/>
       <use xlink:href="#DejaVuSans-65" x="454.109375"/>
       <use xlink:href="#DejaVuSans-72" x="515.632812"/>
       <use xlink:href="#DejaVuSans-65" x="554.496094"/>
       <use xlink:href="#DejaVuSans-6e" x="616.019531"/>
       <use xlink:href="#DejaVuSans-63" x="679.398438"/>
       <use xlink:href="#DejaVuSans-65" x="734.378906"/>
      </g>
      <!-- serving -->
      <g style="fill: #262626" transform="translate(358.286532 365.165859) rotate(-90) scale(0.165 -0.165)">
       <defs>
        <path id="DejaVuSans-76" d="M 191 3500 
L 800 3500 
L 1894 563 
L 2988 3500 
L 3597 3500 
L 2284 0 
L 1503 0 
L 191 3500 
z
" transform="scale(0.015625)"/>
        <path id="DejaVuSans-67" d="M 2906 1791 
Q 2906 2416 2648 2759 
Q 2391 3103 1925 3103 
Q 1463 3103 1205 2759 
Q 947 2416 947 1791 
Q 947 1169 1205 825 
Q 1463 481 1925 481 
Q 2391 481 2648 825 
Q 2906 1169 2906 1791 
z
M 3481 434 
Q 3481 -459 3084 -895 
Q 2688 -1331 1869 -1331 
Q 1566 -1331 1297 -1286 
Q 1028 -1241 775 -1147 
L 775 -588 
Q 1028 -725 1275 -790 
Q 1522 -856 1778 -856 
Q 2344 -856 2625 -561 
Q 2906 -266 2906 331 
L 2906 616 
Q 2728 306 2450 153 
Q 2172 0 1784 0 
Q 1141 0 747 490 
Q 353 981 353 1791 
Q 353 2603 747 3093 
Q 1141 3584 1784 3584 
Q 2172 3584 2450 3431 
Q 2728 3278 2906 2969 
L 2906 3500 
L 3481 3500 
L 3481 434 
z
" transform="scale(0.015625)"/>
       </defs>
       <use xlink:href="#DejaVuSans-73"/>
       <use xlink:href="#DejaVuSans-65" x="52.099609"/>
       <use xlink:href="#DejaVuSans-72" x="113.623047"/>
       <use xlink:href="#DejaVuSans-76" x="154.736328"/>
       <use xlink:href="#DejaVuSans-69" x="213.916016"/>
       <use xlink:href="#DejaVuSans-6e" x="241.699219"/>
       <use xlink:href="#DejaVuSans-67" x="305.078125"/>
      </g>
     </g>
    </g>
    <g id="xtick_3">
     <g id="line2d_3">
      <path d="M 459.401083 256.597187 
L 459.401083 34.877187 
" clip-path="url(#p8f967a0645)" style="fill: none; stroke: #cccccc; stroke-width: 1.5; stroke-linecap: round"/>
     </g>
     <g id="text_3">
      <!-- Metadata-rich -->
      <g style="fill: #262626" transform="translate(454.715856 384.081562) rotate(-90) scale(0.165 -0.165)">
       <defs>
        <path id="DejaVuSans-4d" d="M 628 4666 
L 1569 4666 
L 2759 1491 
L 3956 4666 
L 4897 4666 
L 4897 0 
L 4281 0 
L 4281 4097 
L 3078 897 
L 2444 897 
L 1241 4097 
L 1241 0 
L 628 0 
L 628 4666 
z
" transform="scale(0.015625)"/>
        <path id="DejaVuSans-64" d="M 2906 2969 
L 2906 4863 
L 3481 4863 
L 3481 0 
L 2906 0 
L 2906 525 
Q 2725 213 2448 61 
Q 2172 -91 1784 -91 
Q 1150 -91 751 415 
Q 353 922 353 1747 
Q 353 2572 751 3078 
Q 1150 3584 1784 3584 
Q 2172 3584 2448 3432 
Q 2725 3281 2906 2969 
z
M 947 1747 
Q 947 1113 1208 752 
Q 1469 391 1925 391 
Q 2381 391 2643 752 
Q 2906 1113 2906 1747 
Q 2906 2381 2643 2742 
Q 2381 3103 1925 3103 
Q 1469 3103 1208 2742 
Q 947 2381 947 1747 
z
" transform="scale(0.015625)"/>
       </defs>
       <use xlink:href="#DejaVuSans-4d"/>
       <use xlink:href="#DejaVuSans-65" x="86.279297"/>
       <use xlink:href="#DejaVuSans-74" x="147.802734"/>
       <use xlink:href="#DejaVuSans-61" x="187.011719"/>
       <use xlink:href="#DejaVuSans-64" x="248.291016"/>
       <use xlink:href="#DejaVuSans-61" x="311.767578"/>
       <use xlink:href="#DejaVuSans-74" x="373.046875"/>
       <use xlink:href="#DejaVuSans-61" x="412.255859"/>
       <use xlink:href="#DejaVuSans-2d" x="473.535156"/>
       <use xlink:href="#DejaVuSans-72" x="509.619141"/>
       <use xlink:href="#DejaVuSans-69" x="550.732422"/>
       <use xlink:href="#DejaVuSans-63" x="578.515625"/>
       <use xlink:href="#DejaVuSans-68" x="633.496094"/>
      </g>
      <!-- outputs -->
      <g style="fill: #262626" transform="translate(473.192247 358.09793) rotate(-90) scale(0.165 -0.165)">
       <defs>
        <path id="DejaVuSans-70" d="M 1159 525 
L 1159 -1331 
L 581 -1331 
L 581 3500 
L 1159 3500 
L 1159 2969 
Q 1341 3281 1617 3432 
Q 1894 3584 2278 3584 
Q 2916 3584 3314 3078 
Q 3713 2572 3713 1747 
Q 3713 922 3314 415 
Q 2916 -91 2278 -91 
Q 1894 -91 1617 61 
Q 1341 213 1159 525 
z
M 3116 1747 
Q 3116 2381 2855 2742 
Q 2594 3103 2138 3103 
Q 1681 3103 1420 2742 
Q 1159 2381 1159 1747 
Q 1159 1113 1420 752 
Q 1681 391 2138 391 
Q 2594 391 2855 752 
Q 3116 1113 3116 1747 
z
" transform="scale(0.015625)"/>
       </defs>
       <use xlink:href="#DejaVuSans-6f"/>
       <use xlink:href="#DejaVuSans-75" x="61.181641"/>
       <use xlink:href="#DejaVuSans-74" x="124.560547"/>
       <use xlink:href="#DejaVuSans-70" x="163.769531"/>
       <use xlink:href="#DejaVuSans-75" x="227.246094"/>
       <use xlink:href="#DejaVuSans-74" x="290.625"/>
       <use xlink:href="#DejaVuSans-73" x="329.833984"/>
      </g>
     </g>
    </g>
    <g id="xtick_4">
     <g id="line2d_4">
      <path d="M 574.306797 256.597187 
L 574.306797 34.877187 
" clip-path="url(#p8f967a0645)" style="fill: none; stroke: #cccccc; stroke-width: 1.5; stroke-linecap: round"/>
     </g>
     <g id="text_4">
      <!-- Benchmark -->
      <g style="fill: #262626" transform="translate(569.62157 370.518047) rotate(-90) scale(0.165 -0.165)">
       <defs>
        <path id="DejaVuSans-42" d="M 1259 2228 
L 1259 519 
L 2272 519 
Q 2781 519 3026 730 
Q 3272 941 3272 1375 
Q 3272 1813 3026 2020 
Q 2781 2228 2272 2228 
L 1259 2228 
z
M 1259 4147 
L 1259 2741 
L 2194 2741 
Q 2656 2741 2882 2914 
Q 3109 3088 3109 3444 
Q 3109 3797 2882 3972 
Q 2656 4147 2194 4147 
L 1259 4147 
z
M 628 4666 
L 2241 4666 
Q 2963 4666 3353 4366 
Q 3744 4066 3744 3513 
Q 3744 3084 3544 2831 
Q 3344 2578 2956 2516 
Q 3422 2416 3680 2098 
Q 3938 1781 3938 1306 
Q 3938 681 3513 340 
Q 3088 0 2303 0 
L 628 0 
L 628 4666 
z
" transform="scale(0.015625)"/>
        <path id="DejaVuSans-6b" d="M 581 4863 
L 1159 4863 
L 1159 1991 
L 2875 3500 
L 3609 3500 
L 1753 1863 
L 3688 0 
L 2938 0 
L 1159 1709 
L 1159 0 
L 581 0 
L 581 4863 
z
" transform="scale(0.015625)"/>
       </defs>
       <use xlink:href="#DejaVuSans-42"/>
       <use xlink:href="#DejaVuSans-65" x="68.603516"/>
       <use xlink:href="#DejaVuSans-6e" x="130.126953"/>
       <use xlink:href="#DejaVuSans-63" x="193.505859"/>
       <use xlink:href="#DejaVuSans-68" x="248.486328"/>
       <use xlink:href="#DejaVuSans-6d" x="311.865234"/>
       <use xlink:href="#DejaVuSans-61" x="409.277344"/>
       <use xlink:href="#DejaVuSans-72" x="470.556641"/>
       <use xlink:href="#DejaVuSans-6b" x="511.669922"/>
      </g>
      <!-- transparency -->
      <g style="fill: #262626" transform="translate(588.097961 377.958516) rotate(-90) scale(0.165 -0.165)">
       <defs>
        <path id="DejaVuSans-79" d="M 2059 -325 
Q 1816 -950 1584 -1140 
Q 1353 -1331 966 -1331 
L 506 -1331 
L 506 -850 
L 844 -850 
Q 1081 -850 1212 -737 
Q 1344 -625 1503 -206 
L 1606 56 
L 191 3500 
L 800 3500 
L 1894 763 
L 2988 3500 
L 3597 3500 
L 2059 -325 
z
" transform="scale(0.015625)"/>
       </defs>
       <use xlink:href="#DejaVuSans-74"/>
       <use xlink:href="#DejaVuSans-72" x="39.208984"/>
       <use xlink:href="#DejaVuSans-61" x="80.322266"/>
       <use xlink:href="#DejaVuSans-6e" x="141.601562"/>
       <use xlink:href="#DejaVuSans-73" x="204.980469"/>
       <use xlink:href="#DejaVuSans-70" x="257.080078"/>
       <use xlink:href="#DejaVuSans-61" x="320.556641"/>
       <use xlink:href="#DejaVuSans-72" x="381.835938"/>
       <use xlink:href="#DejaVuSans-65" x="420.699219"/>
       <use xlink:href="#DejaVuSans-6e" x="482.222656"/>
       <use xlink:href="#DejaVuSans-63" x="545.601562"/>
       <use xlink:href="#DejaVuSans-79" x="600.582031"/>
      </g>
     </g>
    </g>
    <g id="xtick_5">
     <g id="line2d_5">
      <path d="M 689.212511 256.597187 
L 689.212511 34.877187 
" clip-path="url(#p8f967a0645)" style="fill: none; stroke: #cccccc; stroke-width: 1.5; stroke-linecap: round"/>
     </g>
     <g id="text_5">
      <!-- Single-agent -->
      <g style="fill: #262626" transform="translate(684.527285 373.441641) rotate(-90) scale(0.165 -0.165)">
       <defs>
        <path id="DejaVuSans-53" d="M 3425 4513 
L 3425 3897 
Q 3066 4069 2747 4153 
Q 2428 4238 2131 4238 
Q 1616 4238 1336 4038 
Q 1056 3838 1056 3469 
Q 1056 3159 1242 3001 
Q 1428 2844 1947 2747 
L 2328 2669 
Q 3034 2534 3370 2195 
Q 3706 1856 3706 1288 
Q 3706 609 3251 259 
Q 2797 -91 1919 -91 
Q 1588 -91 1214 -16 
Q 841 59 441 206 
L 441 856 
Q 825 641 1194 531 
Q 1563 422 1919 422 
Q 2459 422 2753 634 
Q 3047 847 3047 1241 
Q 3047 1584 2836 1778 
Q 2625 1972 2144 2069 
L 1759 2144 
Q 1053 2284 737 2584 
Q 422 2884 422 3419 
Q 422 4038 858 4394 
Q 1294 4750 2059 4750 
Q 2388 4750 2728 4690 
Q 3069 4631 3425 4513 
z
" transform="scale(0.015625)"/>
       </defs>
       <use xlink:href="#DejaVuSans-53"/>
       <use xlink:href="#DejaVuSans-69" x="63.476562"/>
       <use xlink:href="#DejaVuSans-6e" x="91.259766"/>
       <use xlink:href="#DejaVuSans-67" x="154.638672"/>
       <use xlink:href="#DejaVuSans-6c" x="218.115234"/>
       <use xlink:href="#DejaVuSans-65" x="245.898438"/>
       <use xlink:href="#DejaVuSans-2d" x="307.421875"/>
       <use xlink:href="#DejaVuSans-61" x="343.505859"/>
       <use xlink:href="#DejaVuSans-67" x="404.785156"/>
       <use xlink:href="#DejaVuSans-65" x="468.261719"/>
       <use xlink:href="#DejaVuSans-6e" x="529.785156"/>
       <use xlink:href="#DejaVuSans-74" x="593.164062"/>
      </g>
      <!-- prediction -->
      <g style="fill: #262626" transform="translate(703.003675 362.657344) rotate(-90) scale(0.165 -0.165)">
       <use xlink:href="#DejaVuSans-70"/>
       <use xlink:href="#DejaVuSans-72" x="63.476562"/>
       <use xlink:href="#DejaVuSans-65" x="102.339844"/>
       <use xlink:href="#DejaVuSans-64" x="163.863281"/>
       <use xlink:href="#DejaVuSans-69" x="227.339844"/>
       <use xlink:href="#DejaVuSans-63" x="255.123047"/>
       <use xlink:href="#DejaVuSans-74" x="310.103516"/>
       <use xlink:href="#DejaVuSans-69" x="349.3125"/>
       <use xlink:href="#DejaVuSans-6f" x="377.095703"/>
       <use xlink:href="#DejaVuSans-6e" x="438.277344"/>
      </g>
     </g>
    </g>
    <g id="xtick_6">
     <g id="line2d_6">
      <path d="M 804.118225 256.597187 
L 804.118225 34.877187 
" clip-path="url(#p8f967a0645)" style="fill: none; stroke: #cccccc; stroke-width: 1.5; stroke-linecap: round"/>
     </g>
     <g id="text_6">
      <!-- Combination -->
      <g style="fill: #262626" transform="translate(799.432999 374.019141) rotate(-90) scale(0.165 -0.165)">
       <use xlink:href="#DejaVuSans-43"/>
       <use xlink:href="#DejaVuSans-6f" x="69.824219"/>
       <use xlink:href="#DejaVuSans-6d" x="131.005859"/>
       <use xlink:href="#DejaVuSans-62" x="228.417969"/>
       <use xlink:href="#DejaVuSans-69" x="291.894531"/>
       <use xlink:href="#DejaVuSans-6e" x="319.677734"/>
       <use xlink:href="#DejaVuSans-61" x="383.056641"/>
       <use xlink:href="#DejaVuSans-74" x="444.335938"/>
       <use xlink:href="#DejaVuSans-69" x="483.544922"/>
       <use xlink:href="#DejaVuSans-6f" x="511.328125"/>
       <use xlink:href="#DejaVuSans-6e" x="572.509766"/>
      </g>
      <!-- analysis -->
      <g style="fill: #262626" transform="translate(817.90939 354.960352) rotate(-90) scale(0.165 -0.165)">
       <use xlink:href="#DejaVuSans-61"/>
       <use xlink:href="#DejaVuSans-6e" x="61.279297"/>
       <use xlink:href="#DejaVuSans-61" x="124.658203"/>
       <use xlink:href="#DejaVuSans-6c" x="185.9375"/>
       <use xlink:href="#DejaVuSans-79" x="213.720703"/>
       <use xlink:href="#DejaVuSans-73" x="272.900391"/>
       <use xlink:href="#DejaVuSans-69" x="325"/>
       <use xlink:href="#DejaVuSans-73" x="352.783203"/>
      </g>
     </g>
    </g>
    <g id="xtick_7">
     <g id="line2d_7">
      <path d="M 919.02394 256.597187 
L 919.02394 34.877187 
" clip-path="url(#p8f967a0645)" style="fill: none; stroke: #cccccc; stroke-width: 1.5; stroke-linecap: round"/>
     </g>
     <g id="text_7">
      <!-- Model-method -->
      <g style="fill: #262626" transform="translate(914.338713 388.314844) rotate(-90) scale(0.165 -0.165)">
       <use xlink:href="#DejaVuSans-4d"/>
       <use xlink:href="#DejaVuSans-6f" x="86.279297"/>
       <use xlink:href="#DejaVuSans-64" x="147.460938"/>
       <use xlink:href="#DejaVuSans-65" x="210.9375"/>
       <use xlink:href="#DejaVuSans-6c" x="272.460938"/>
       <use xlink:href="#DejaVuSans-2d" x="300.244141"/>
       <use xlink:href="#DejaVuSans-6d" x="336.328125"/>
       <use xlink:href="#DejaVuSans-65" x="433.740234"/>
       <use xlink:href="#DejaVuSans-74" x="495.263672"/>
       <use xlink:href="#DejaVuSans-68" x="534.472656"/>
       <use xlink:href="#DejaVuSans-6f" x="597.851562"/>
       <use xlink:href="#DejaVuSans-64" x="659.033203"/>
      </g>
      <!-- innovation -->
      <g style="fill: #262626" transform="translate(932.815104 372.244102) rotate(-90) scale(0.165 -0.165)">
       <use xlink:href="#DejaVuSans-69"/>
       <use xlink:href="#DejaVuSans-6e" x="27.783203"/>
       <use xlink:href="#DejaVuSans-6e" x="91.162109"/>
       <use xlink:href="#DejaVuSans-6f" x="154.541016"/>
       <use xlink:href="#DejaVuSans-76" x="215.722656"/>
       <use xlink:href="#DejaVuSans-61" x="274.902344"/>
       <use xlink:href="#DejaVuSans-74" x="336.181641"/>
       <use xlink:href="#DejaVuSans-69" x="375.390625"/>
       <use xlink:href="#DejaVuSans-6f" x="403.173828"/>
       <use xlink:href="#DejaVuSans-6e" x="464.355469"/>
      </g>
     </g>
    </g>
   </g>
   <g id="matplotlib.axis_2">
    <g id="ytick_1">
     <g id="line2d_8">
      <path d="M 172.136797 53.353854 
L 976.476797 53.353854 
" clip-path="url(#p8f967a0645)" style="fill: none; stroke: #cccccc; stroke-width: 1.5; stroke-linecap: round"/>
     </g>
     <g id="text_8">
      <!-- Pharmacoprofiler -->
      <g style="fill: #262626" transform="translate(18.37875 57.906823) scale(0.165 -0.165)">
       <use xlink:href="#DejaVuSans-50"/>
       <use xlink:href="#DejaVuSans-68" x="60.302734"/>
       <use xlink:href="#DejaVuSans-61" x="123.681641"/>
       <use xlink:href="#DejaVuSans-72" x="184.960938"/>
       <use xlink:href="#DejaVuSans-6d" x="224.324219"/>
       <use xlink:href="#DejaVuSans-61" x="321.736328"/>
       <use xlink:href="#DejaVuSans-63" x="383.015625"/>
       <use xlink:href="#DejaVuSans-6f" x="437.996094"/>
       <use xlink:href="#DejaVuSans-70" x="499.177734"/>
       <use xlink:href="#DejaVuSans-72" x="562.654297"/>
       <use xlink:href="#DejaVuSans-6f" x="601.517578"/>
       <use xlink:href="#DejaVuSans-66" x="662.699219"/>
       <use xlink:href="#DejaVuSans-69" x="697.904297"/>
       <use xlink:href="#DejaVuSans-6c" x="725.6875"/>
       <use xlink:href="#DejaVuSans-65" x="753.470703"/>
       <use xlink:href="#DejaVuSans-72" x="814.994141"/>
      </g>
     </g>
    </g>
    <g id="ytick_2">
     <g id="line2d_9">
      <path d="M 172.136797 90.307187 
L 976.476797 90.307187 
" clip-path="url(#p8f967a0645)" style="fill: none; stroke: #cccccc; stroke-width: 1.5; stroke-linecap: round"/>
     </g>
     <g id="text_9">
      <!-- PharmacoDB 2.0 -->
      <g style="fill: #262626" transform="translate(21.763828 94.860156) scale(0.165 -0.165)">
       <defs>
        <path id="DejaVuSans-44" d="M 1259 4147 
L 1259 519 
L 2022 519 
Q 2988 519 3436 956 
Q 3884 1394 3884 2338 
Q 3884 3275 3436 3711 
Q 2988 4147 2022 4147 
L 1259 4147 
z
M 628 4666 
L 1925 4666 
Q 3281 4666 3915 4102 
Q 4550 3538 4550 2338 
Q 4550 1131 3912 565 
Q 3275 0 1925 0 
L 628 0 
L 628 4666 
z
" transform="scale(0.015625)"/>
        <path id="DejaVuSans-32" d="M 1228 531 
L 3431 531 
L 3431 0 
L 469 0 
L 469 531 
Q 828 903 1448 1529 
Q 2069 2156 2228 2338 
Q 2531 2678 2651 2914 
Q 2772 3150 2772 3378 
Q 2772 3750 2511 3984 
Q 2250 4219 1831 4219 
Q 1534 4219 1204 4116 
Q 875 4013 500 3803 
L 500 4441 
Q 881 4594 1212 4672 
Q 1544 4750 1819 4750 
Q 2544 4750 2975 4387 
Q 3406 4025 3406 3419 
Q 3406 3131 3298 2873 
Q 3191 2616 2906 2266 
Q 2828 2175 2409 1742 
Q 1991 1309 1228 531 
z
" transform="scale(0.015625)"/>
        <path id="DejaVuSans-2e" d="M 684 794 
L 1344 794 
L 1344 0 
L 684 0 
L 684 794 
z
" transform="scale(0.015625)"/>
        <path id="DejaVuSans-30" d="M 2034 4250 
Q 1547 4250 1301 3770 
Q 1056 3291 1056 2328 
Q 1056 1369 1301 889 
Q 1547 409 2034 409 
Q 2525 409 2770 889 
Q 3016 1369 3016 2328 
Q 3016 3291 2770 3770 
Q 2525 4250 2034 4250 
z
M 2034 4750 
Q 2819 4750 3233 4129 
Q 3647 3509 3647 2328 
Q 3647 1150 3233 529 
Q 2819 -91 2034 -91 
Q 1250 -91 836 529 
Q 422 1150 422 2328 
Q 422 3509 836 4129 
Q 1250 4750 2034 4750 
z
" transform="scale(0.015625)"/>
       </defs>
       <use xlink:href="#DejaVuSans-50"/>
       <use xlink:href="#DejaVuSans-68" x="60.302734"/>
       <use xlink:href="#DejaVuSans-61" x="123.681641"/>
       <use xlink:href="#DejaVuSans-72" x="184.960938"/>
       <use xlink:href="#DejaVuSans-6d" x="224.324219"/>
       <use xlink:href="#DejaVuSans-61" x="321.736328"/>
       <use xlink:href="#DejaVuSans-63" x="383.015625"/>
       <use xlink:href="#DejaVuSans-6f" x="437.996094"/>
       <use xlink:href="#DejaVuSans-44" x="499.177734"/>
       <use xlink:href="#DejaVuSans-42" x="576.179688"/>
       <use xlink:href="#DejaVuSans-20" x="644.783203"/>
       <use xlink:href="#DejaVuSans-32" x="676.570312"/>
       <use xlink:href="#DejaVuSans-2e" x="740.193359"/>
       <use xlink:href="#DejaVuSans-30" x="771.980469"/>
      </g>
     </g>
    </g>
    <g id="ytick_3">
     <g id="line2d_10">
      <path d="M 172.136797 127.260521 
L 976.476797 127.260521 
" clip-path="url(#p8f967a0645)" style="fill: none; stroke: #cccccc; stroke-width: 1.5; stroke-linecap: round"/>
     </g>
     <g id="text_10">
      <!-- CellMinerCDB -->
      <g style="fill: #262626" transform="translate(47.034609 131.81349) scale(0.165 -0.165)">
       <use xlink:href="#DejaVuSans-43"/>
       <use xlink:href="#DejaVuSans-65" x="69.824219"/>
       <use xlink:href="#DejaVuSans-6c" x="131.347656"/>
       <use xlink:href="#DejaVuSans-6c" x="159.130859"/>
       <use xlink:href="#DejaVuSans-4d" x="186.914062"/>
       <use xlink:href="#DejaVuSans-69" x="273.193359"/>
       <use xlink:href="#DejaVuSans-6e" x="300.976562"/>
       <use xlink:href="#DejaVuSans-65" x="364.355469"/>
       <use xlink:href="#DejaVuSans-72" x="425.878906"/>
       <use xlink:href="#DejaVuSans-43" x="466.992188"/>
       <use xlink:href="#DejaVuSans-44" x="536.816406"/>
       <use xlink:href="#DejaVuSans-42" x="613.818359"/>
      </g>
     </g>
    </g>
    <g id="ytick_4">
     <g id="line2d_11">
      <path d="M 172.136797 164.213854 
L 976.476797 164.213854 
" clip-path="url(#p8f967a0645)" style="fill: none; stroke: #cccccc; stroke-width: 1.5; stroke-linecap: round"/>
     </g>
     <g id="text_11">
      <!-- DrugComb -->
      <g style="fill: #262626" transform="translate(71.052422 168.766823) scale(0.165 -0.165)">
       <use xlink:href="#DejaVuSans-44"/>
       <use xlink:href="#DejaVuSans-72" x="77.001953"/>
       <use xlink:href="#DejaVuSans-75" x="118.115234"/>
       <use xlink:href="#DejaVuSans-67" x="181.494141"/>
       <use xlink:href="#DejaVuSans-43" x="244.970703"/>
       <use xlink:href="#DejaVuSans-6f" x="314.794922"/>
       <use xlink:href="#DejaVuSans-6d" x="375.976562"/>
       <use xlink:href="#DejaVuSans-62" x="473.388672"/>
      </g>
     </g>
    </g>
    <g id="ytick_5">
     <g id="line2d_12">
      <path d="M 172.136797 201.167187 
L 976.476797 201.167187 
" clip-path="url(#p8f967a0645)" style="fill: none; stroke: #cccccc; stroke-width: 1.5; stroke-linecap: round"/>
     </g>
     <g id="text_12">
      <!-- PharmacoGx -->
      <g style="fill: #262626" transform="translate(54.722578 205.720156) scale(0.165 -0.165)">
       <defs>
        <path id="DejaVuSans-47" d="M 3809 666 
L 3809 1919 
L 2778 1919 
L 2778 2438 
L 4434 2438 
L 4434 434 
Q 4069 175 3628 42 
Q 3188 -91 2688 -91 
Q 1594 -91 976 548 
Q 359 1188 359 2328 
Q 359 3472 976 4111 
Q 1594 4750 2688 4750 
Q 3144 4750 3555 4637 
Q 3966 4525 4313 4306 
L 4313 3634 
Q 3963 3931 3569 4081 
Q 3175 4231 2741 4231 
Q 1884 4231 1454 3753 
Q 1025 3275 1025 2328 
Q 1025 1384 1454 906 
Q 1884 428 2741 428 
Q 3075 428 3337 486 
Q 3600 544 3809 666 
z
" transform="scale(0.015625)"/>
        <path id="DejaVuSans-78" d="M 3513 3500 
L 2247 1797 
L 3578 0 
L 2900 0 
L 1881 1375 
L 863 0 
L 184 0 
L 1544 1831 
L 300 3500 
L 978 3500 
L 1906 2253 
L 2834 3500 
L 3513 3500 
z
" transform="scale(0.015625)"/>
       </defs>
       <use xlink:href="#DejaVuSans-50"/>
       <use xlink:href="#DejaVuSans-68" x="60.302734"/>
       <use xlink:href="#DejaVuSans-61" x="123.681641"/>
       <use xlink:href="#DejaVuSans-72" x="184.960938"/>
       <use xlink:href="#DejaVuSans-6d" x="224.324219"/>
       <use xlink:href="#DejaVuSans-61" x="321.736328"/>
       <use xlink:href="#DejaVuSans-63" x="383.015625"/>
       <use xlink:href="#DejaVuSans-6f" x="437.996094"/>
       <use xlink:href="#DejaVuSans-47" x="499.177734"/>
       <use xlink:href="#DejaVuSans-78" x="576.667969"/>
      </g>
     </g>
    </g>
    <g id="ytick_6">
     <g id="line2d_13">
      <path d="M 172.136797 238.120521 
L 976.476797 238.120521 
" clip-path="url(#p8f967a0645)" style="fill: none; stroke: #cccccc; stroke-width: 1.5; stroke-linecap: round"/>
     </g>
     <g id="text_13">
      <!-- Modern DL Models -->
      <g style="fill: #262626" transform="translate(7.2 242.67349) scale(0.165 -0.165)">
       <defs>
        <path id="DejaVuSans-4c" d="M 628 4666 
L 1259 4666 
L 1259 531 
L 3531 531 
L 3531 0 
L 628 0 
L 628 4666 
z
" transform="scale(0.015625)"/>
       </defs>
       <use xlink:href="#DejaVuSans-4d"/>
       <use xlink:href="#DejaVuSans-6f" x="86.279297"/>
       <use xlink:href="#DejaVuSans-64" x="147.460938"/>
       <use xlink:href="#DejaVuSans-65" x="210.9375"/>
       <use xlink:href="#DejaVuSans-72" x="272.460938"/>
       <use xlink:href="#DejaVuSans-6e" x="311.824219"/>
       <use xlink:href="#DejaVuSans-20" x="375.203125"/>
       <use xlink:href="#DejaVuSans-44" x="406.990234"/>
       <use xlink:href="#DejaVuSans-4c" x="483.992188"/>
       <use xlink:href="#DejaVuSans-20" x="539.705078"/>
       <use xlink:href="#DejaVuSans-4d" x="571.492188"/>
       <use xlink:href="#DejaVuSans-6f" x="657.771484"/>
       <use xlink:href="#DejaVuSans-64" x="718.953125"/>
       <use xlink:href="#DejaVuSans-65" x="782.429688"/>
       <use xlink:href="#DejaVuSans-6c" x="843.953125"/>
       <use xlink:href="#DejaVuSans-73" x="871.736328"/>
      </g>
     </g>
    </g>
   </g>
   <g id="QuadMesh_1">
    <path d="M 172.136797 34.877187 
L 287.042511 34.877187 
L 287.042511 71.830521 
L 172.136797 71.830521 
L 172.136797 34.877187 
" clip-path="url(#p8f967a0645)" style="fill: #1f78b4; stroke: #ffffff; stroke-width: 0.5"/>
    <path d="M 287.042511 34.877187 
L 401.948225 34.877187 
L 401.948225 71.830521 
L 287.042511 71.830521 
L 287.042511 34.877187 
" clip-path="url(#p8f967a0645)" style="fill: #1f78b4; stroke: #ffffff; stroke-width: 0.5"/>
    <path d="M 401.948225 34.877187 
L 516.85394 34.877187 
L 516.85394 71.830521 
L 401.948225 71.830521 
L 401.948225 34.877187 
" clip-path="url(#p8f967a0645)" style="fill: #1f78b4; stroke: #ffffff; stroke-width: 0.5"/>
    <path d="M 516.85394 34.877187 
L 631.759654 34.877187 
L 631.759654 71.830521 
L 516.85394 71.830521 
L 516.85394 34.877187 
" clip-path="url(#p8f967a0645)" style="fill: #1f78b4; stroke: #ffffff; stroke-width: 0.5"/>
    <path d="M 631.759654 34.877187 
L 746.665368 34.877187 
L 746.665368 71.830521 
L 631.759654 71.830521 
L 631.759654 34.877187 
" clip-path="url(#p8f967a0645)" style="fill: #1f78b4; stroke: #ffffff; stroke-width: 0.5"/>
    <path d="M 746.665368 34.877187 
L 861.571083 34.877187 
L 861.571083 71.830521 
L 746.665368 71.830521 
L 746.665368 34.877187 
" clip-path="url(#p8f967a0645)" style="fill: #f7f7f7; stroke: #ffffff; stroke-width: 0.5"/>
    <path d="M 861.571083 34.877187 
L 976.476797 34.877187 
L 976.476797 71.830521 
L 861.571083 71.830521 
L 861.571083 34.877187 
" clip-path="url(#p8f967a0645)" style="fill: #f7f7f7; stroke: #ffffff; stroke-width: 0.5"/>
    <path d="M 172.136797 71.830521 
L 287.042511 71.830521 
L 287.042511 108.783854 
L 172.136797 108.783854 
L 172.136797 71.830521 
" clip-path="url(#p8f967a0645)" style="fill: #1f78b4; stroke: #ffffff; stroke-width: 0.5"/>
    <path d="M 287.042511 71.830521 
L 401.948225 71.830521 
L 401.948225 108.783854 
L 287.042511 108.783854 
L 287.042511 71.830521 
" clip-path="url(#p8f967a0645)" style="fill: #f7f7f7; stroke: #ffffff; stroke-width: 0.5"/>
    <path d="M 401.948225 71.830521 
L 516.85394 71.830521 
L 516.85394 108.783854 
L 401.948225 108.783854 
L 401.948225 71.830521 
" clip-path="url(#p8f967a0645)" style="fill: #a6cee3; stroke: #ffffff; stroke-width: 0.5"/>
    <path d="M 516.85394 71.830521 
L 631.759654 71.830521 
L 631.759654 108.783854 
L 516.85394 108.783854 
L 516.85394 71.830521 
" clip-path="url(#p8f967a0645)" style="fill: #a6cee3; stroke: #ffffff; stroke-width: 0.5"/>
    <path d="M 631.759654 71.830521 
L 746.665368 71.830521 
L 746.665368 108.783854 
L 631.759654 108.783854 
L 631.759654 71.830521 
" clip-path="url(#p8f967a0645)" style="fill: #f7f7f7; stroke: #ffffff; stroke-width: 0.5"/>
    <path d="M 746.665368 71.830521 
L 861.571083 71.830521 
L 861.571083 108.783854 
L 746.665368 108.783854 
L 746.665368 71.830521 
" clip-path="url(#p8f967a0645)" style="fill: #f7f7f7; stroke: #ffffff; stroke-width: 0.5"/>
    <path d="M 861.571083 71.830521 
L 976.476797 71.830521 
L 976.476797 108.783854 
L 861.571083 108.783854 
L 861.571083 71.830521 
" clip-path="url(#p8f967a0645)" style="fill: #f7f7f7; stroke: #ffffff; stroke-width: 0.5"/>
    <path d="M 172.136797 108.783854 
L 287.042511 108.783854 
L 287.042511 145.737187 
L 172.136797 145.737187 
L 172.136797 108.783854 
" clip-path="url(#p8f967a0645)" style="fill: #1f78b4; stroke: #ffffff; stroke-width: 0.5"/>
    <path d="M 287.042511 108.783854 
L 401.948225 108.783854 
L 401.948225 145.737187 
L 287.042511 145.737187 
L 287.042511 108.783854 
" clip-path="url(#p8f967a0645)" style="fill: #f7f7f7; stroke: #ffffff; stroke-width: 0.5"/>
    <path d="M 401.948225 108.783854 
L 516.85394 108.783854 
L 516.85394 145.737187 
L 401.948225 145.737187 
L 401.948225 108.783854 
" clip-path="url(#p8f967a0645)" style="fill: #a6cee3; stroke: #ffffff; stroke-width: 0.5"/>
    <path d="M 516.85394 108.783854 
L 631.759654 108.783854 
L 631.759654 145.737187 
L 516.85394 145.737187 
L 516.85394 108.783854 
" clip-path="url(#p8f967a0645)" style="fill: #a6cee3; stroke: #ffffff; stroke-width: 0.5"/>
    <path d="M 631.759654 108.783854 
L 746.665368 108.783854 
L 746.665368 145.737187 
L 631.759654 145.737187 
L 631.759654 108.783854 
" clip-path="url(#p8f967a0645)" style="fill: #f7f7f7; stroke: #ffffff; stroke-width: 0.5"/>
    <path d="M 746.665368 108.783854 
L 861.571083 108.783854 
L 861.571083 145.737187 
L 746.665368 145.737187 
L 746.665368 108.783854 
" clip-path="url(#p8f967a0645)" style="fill: #f7f7f7; stroke: #ffffff; stroke-width: 0.5"/>
    <path d="M 861.571083 108.783854 
L 976.476797 108.783854 
L 976.476797 145.737187 
L 861.571083 145.737187 
L 861.571083 108.783854 
" clip-path="url(#p8f967a0645)" style="fill: #f7f7f7; stroke: #ffffff; stroke-width: 0.5"/>
    <path d="M 172.136797 145.737187 
L 287.042511 145.737187 
L 287.042511 182.690521 
L 172.136797 182.690521 
L 172.136797 145.737187 
" clip-path="url(#p8f967a0645)" style="fill: #1f78b4; stroke: #ffffff; stroke-width: 0.5"/>
    <path d="M 287.042511 145.737187 
L 401.948225 145.737187 
L 401.948225 182.690521 
L 287.042511 182.690521 
L 287.042511 145.737187 
" clip-path="url(#p8f967a0645)" style="fill: #f7f7f7; stroke: #ffffff; stroke-width: 0.5"/>
    <path d="M 401.948225 145.737187 
L 516.85394 145.737187 
L 516.85394 182.690521 
L 401.948225 182.690521 
L 401.948225 145.737187 
" clip-path="url(#p8f967a0645)" style="fill: #a6cee3; stroke: #ffffff; stroke-width: 0.5"/>
    <path d="M 516.85394 145.737187 
L 631.759654 145.737187 
L 631.759654 182.690521 
L 516.85394 182.690521 
L 516.85394 145.737187 
" clip-path="url(#p8f967a0645)" style="fill: #a6cee3; stroke: #ffffff; stroke-width: 0.5"/>
    <path d="M 631.759654 145.737187 
L 746.665368 145.737187 
L 746.665368 182.690521 
L 631.759654 182.690521 
L 631.759654 145.737187 
" clip-path="url(#p8f967a0645)" style="fill: #f7f7f7; stroke: #ffffff; stroke-width: 0.5"/>
    <path d="M 746.665368 145.737187 
L 861.571083 145.737187 
L 861.571083 182.690521 
L 746.665368 182.690521 
L 746.665368 145.737187 
" clip-path="url(#p8f967a0645)" style="fill: #1f78b4; stroke: #ffffff; stroke-width: 0.5"/>
    <path d="M 861.571083 145.737187 
L 976.476797 145.737187 
L 976.476797 182.690521 
L 861.571083 182.690521 
L 861.571083 145.737187 
" clip-path="url(#p8f967a0645)" style="fill: #f7f7f7; stroke: #ffffff; stroke-width: 0.5"/>
    <path d="M 172.136797 182.690521 
L 287.042511 182.690521 
L 287.042511 219.643854 
L 172.136797 219.643854 
L 172.136797 182.690521 
" clip-path="url(#p8f967a0645)" style="fill: #1f78b4; stroke: #ffffff; stroke-width: 0.5"/>
    <path d="M 287.042511 182.690521 
L 401.948225 182.690521 
L 401.948225 219.643854 
L 287.042511 219.643854 
L 287.042511 182.690521 
" clip-path="url(#p8f967a0645)" style="fill: #f7f7f7; stroke: #ffffff; stroke-width: 0.5"/>
    <path d="M 401.948225 182.690521 
L 516.85394 182.690521 
L 516.85394 219.643854 
L 401.948225 219.643854 
L 401.948225 182.690521 
" clip-path="url(#p8f967a0645)" style="fill: #a6cee3; stroke: #ffffff; stroke-width: 0.5"/>
    <path d="M 516.85394 182.690521 
L 631.759654 182.690521 
L 631.759654 219.643854 
L 516.85394 219.643854 
L 516.85394 182.690521 
" clip-path="url(#p8f967a0645)" style="fill: #1f78b4; stroke: #ffffff; stroke-width: 0.5"/>
    <path d="M 631.759654 182.690521 
L 746.665368 182.690521 
L 746.665368 219.643854 
L 631.759654 219.643854 
L 631.759654 182.690521 
" clip-path="url(#p8f967a0645)" style="fill: #f7f7f7; stroke: #ffffff; stroke-width: 0.5"/>
    <path d="M 746.665368 182.690521 
L 861.571083 182.690521 
L 861.571083 219.643854 
L 746.665368 219.643854 
L 746.665368 182.690521 
" clip-path="url(#p8f967a0645)" style="fill: #f7f7f7; stroke: #ffffff; stroke-width: 0.5"/>
    <path d="M 861.571083 182.690521 
L 976.476797 182.690521 
L 976.476797 219.643854 
L 861.571083 219.643854 
L 861.571083 182.690521 
" clip-path="url(#p8f967a0645)" style="fill: #f7f7f7; stroke: #ffffff; stroke-width: 0.5"/>
    <path d="M 172.136797 219.643854 
L 287.042511 219.643854 
L 287.042511 256.597187 
L 172.136797 256.597187 
L 172.136797 219.643854 
" clip-path="url(#p8f967a0645)" style="fill: #f7f7f7; stroke: #ffffff; stroke-width: 0.5"/>
    <path d="M 287.042511 219.643854 
L 401.948225 219.643854 
L 401.948225 256.597187 
L 287.042511 256.597187 
L 287.042511 219.643854 
" clip-path="url(#p8f967a0645)" style="fill: #f7f7f7; stroke: #ffffff; stroke-width: 0.5"/>
    <path d="M 401.948225 219.643854 
L 516.85394 219.643854 
L 516.85394 256.597187 
L 401.948225 256.597187 
L 401.948225 219.643854 
" clip-path="url(#p8f967a0645)" style="fill: #f7f7f7; stroke: #ffffff; stroke-width: 0.5"/>
    <path d="M 516.85394 219.643854 
L 631.759654 219.643854 
L 631.759654 256.597187 
L 516.85394 256.597187 
L 516.85394 219.643854 
" clip-path="url(#p8f967a0645)" style="fill: #f7f7f7; stroke: #ffffff; stroke-width: 0.5"/>
    <path d="M 631.759654 219.643854 
L 746.665368 219.643854 
L 746.665368 256.597187 
L 631.759654 256.597187 
L 631.759654 219.643854 
" clip-path="url(#p8f967a0645)" style="fill: #1f78b4; stroke: #ffffff; stroke-width: 0.5"/>
    <path d="M 746.665368 219.643854 
L 861.571083 219.643854 
L 861.571083 256.597187 
L 746.665368 256.597187 
L 746.665368 219.643854 
" clip-path="url(#p8f967a0645)" style="fill: #f7f7f7; stroke: #ffffff; stroke-width: 0.5"/>
    <path d="M 861.571083 219.643854 
L 976.476797 219.643854 
L 976.476797 256.597187 
L 861.571083 256.597187 
L 861.571083 219.643854 
" clip-path="url(#p8f967a0645)" style="fill: #1f78b4; stroke: #ffffff; stroke-width: 0.5"/>
   </g>
   <g id="text_14">
    <!-- 2 -->
    <g style="fill: #ffffff" transform="translate(223.863404 58.320729) scale(0.18 -0.18)">
     <use xlink:href="#DejaVuSans-32"/>
    </g>
   </g>
   <g id="text_15">
    <!-- 2 -->
    <g style="fill: #ffffff" transform="translate(338.769118 58.320729) scale(0.18 -0.18)">
     <use xlink:href="#DejaVuSans-32"/>
    </g>
   </g>
   <g id="text_16">
    <!-- 2 -->
    <g style="fill: #ffffff" transform="translate(453.674833 58.320729) scale(0.18 -0.18)">
     <use xlink:href="#DejaVuSans-32"/>
    </g>
   </g>
   <g id="text_17">
    <!-- 2 -->
    <g style="fill: #ffffff" transform="translate(568.580547 58.320729) scale(0.18 -0.18)">
     <use xlink:href="#DejaVuSans-32"/>
    </g>
   </g>
   <g id="text_18">
    <!-- 2 -->
    <g style="fill: #ffffff" transform="translate(683.486261 58.320729) scale(0.18 -0.18)">
     <use xlink:href="#DejaVuSans-32"/>
    </g>
   </g>
   <g id="text_19">
    <!-- 0 -->
    <g style="fill: #262626" transform="translate(798.391975 58.320729) scale(0.18 -0.18)">
     <use xlink:href="#DejaVuSans-30"/>
    </g>
   </g>
   <g id="text_20">
    <!-- 0 -->
    <g style="fill: #262626" transform="translate(913.29769 58.320729) scale(0.18 -0.18)">
     <use xlink:href="#DejaVuSans-30"/>
    </g>
   </g>
   <g id="text_21">
    <!-- 2 -->
    <g style="fill: #ffffff" transform="translate(223.863404 95.274062) scale(0.18 -0.18)">
     <use xlink:href="#DejaVuSans-32"/>
    </g>
   </g>
   <g id="text_22">
    <!-- 0 -->
    <g style="fill: #262626" transform="translate(338.769118 95.274062) scale(0.18 -0.18)">
     <use xlink:href="#DejaVuSans-30"/>
    </g>
   </g>
   <g id="text_23">
    <!-- 1 -->
    <g style="fill: #262626" transform="translate(453.674833 95.274062) scale(0.18 -0.18)">
     <defs>
      <path id="DejaVuSans-31" d="M 794 531 
L 1825 531 
L 1825 4091 
L 703 3866 
L 703 4441 
L 1819 4666 
L 2450 4666 
L 2450 531 
L 3481 531 
L 3481 0 
L 794 0 
L 794 531 
z
" transform="scale(0.015625)"/>
     </defs>
     <use xlink:href="#DejaVuSans-31"/>
    </g>
   </g>
   <g id="text_24">
    <!-- 1 -->
    <g style="fill: #262626" transform="translate(568.580547 95.274062) scale(0.18 -0.18)">
     <use xlink:href="#DejaVuSans-31"/>
    </g>
   </g>
   <g id="text_25">
    <!-- 0 -->
    <g style="fill: #262626" transform="translate(683.486261 95.274062) scale(0.18 -0.18)">
     <use xlink:href="#DejaVuSans-30"/>
    </g>
   </g>
   <g id="text_26">
    <!-- 0 -->
    <g style="fill: #262626" transform="translate(798.391975 95.274062) scale(0.18 -0.18)">
     <use xlink:href="#DejaVuSans-30"/>
    </g>
   </g>
   <g id="text_27">
    <!-- 0 -->
    <g style="fill: #262626" transform="translate(913.29769 95.274062) scale(0.18 -0.18)">
     <use xlink:href="#DejaVuSans-30"/>
    </g>
   </g>
   <g id="text_28">
    <!-- 2 -->
    <g style="fill: #ffffff" transform="translate(223.863404 132.227396) scale(0.18 -0.18)">
     <use xlink:href="#DejaVuSans-32"/>
    </g>
   </g>
   <g id="text_29">
    <!-- 0 -->
    <g style="fill: #262626" transform="translate(338.769118 132.227396) scale(0.18 -0.18)">
     <use xlink:href="#DejaVuSans-30"/>
    </g>
   </g>
   <g id="text_30">
    <!-- 1 -->
    <g style="fill: #262626" transform="translate(453.674833 132.227396) scale(0.18 -0.18)">
     <use xlink:href="#DejaVuSans-31"/>
    </g>
   </g>
   <g id="text_31">
    <!-- 1 -->
    <g style="fill: #262626" transform="translate(568.580547 132.227396) scale(0.18 -0.18)">
     <use xlink:href="#DejaVuSans-31"/>
    </g>
   </g>
   <g id="text_32">
    <!-- 0 -->
    <g style="fill: #262626" transform="translate(683.486261 132.227396) scale(0.18 -0.18)">
     <use xlink:href="#DejaVuSans-30"/>
    </g>
   </g>
   <g id="text_33">
    <!-- 0 -->
    <g style="fill: #262626" transform="translate(798.391975 132.227396) scale(0.18 -0.18)">
     <use xlink:href="#DejaVuSans-30"/>
    </g>
   </g>
   <g id="text_34">
    <!-- 0 -->
    <g style="fill: #262626" transform="translate(913.29769 132.227396) scale(0.18 -0.18)">
     <use xlink:href="#DejaVuSans-30"/>
    </g>
   </g>
   <g id="text_35">
    <!-- 2 -->
    <g style="fill: #ffffff" transform="translate(223.863404 169.180729) scale(0.18 -0.18)">
     <use xlink:href="#DejaVuSans-32"/>
    </g>
   </g>
   <g id="text_36">
    <!-- 0 -->
    <g style="fill: #262626" transform="translate(338.769118 169.180729) scale(0.18 -0.18)">
     <use xlink:href="#DejaVuSans-30"/>
    </g>
   </g>
   <g id="text_37">
    <!-- 1 -->
    <g style="fill: #262626" transform="translate(453.674833 169.180729) scale(0.18 -0.18)">
     <use xlink:href="#DejaVuSans-31"/>
    </g>
   </g>
   <g id="text_38">
    <!-- 1 -->
    <g style="fill: #262626" transform="translate(568.580547 169.180729) scale(0.18 -0.18)">
     <use xlink:href="#DejaVuSans-31"/>
    </g>
   </g>
   <g id="text_39">
    <!-- 0 -->
    <g style="fill: #262626" transform="translate(683.486261 169.180729) scale(0.18 -0.18)">
     <use xlink:href="#DejaVuSans-30"/>
    </g>
   </g>
   <g id="text_40">
    <!-- 2 -->
    <g style="fill: #ffffff" transform="translate(798.391975 169.180729) scale(0.18 -0.18)">
     <use xlink:href="#DejaVuSans-32"/>
    </g>
   </g>
   <g id="text_41">
    <!-- 0 -->
    <g style="fill: #262626" transform="translate(913.29769 169.180729) scale(0.18 -0.18)">
     <use xlink:href="#DejaVuSans-30"/>
    </g>
   </g>
   <g id="text_42">
    <!-- 2 -->
    <g style="fill: #ffffff" transform="translate(223.863404 206.134062) scale(0.18 -0.18)">
     <use xlink:href="#DejaVuSans-32"/>
    </g>
   </g>
   <g id="text_43">
    <!-- 0 -->
    <g style="fill: #262626" transform="translate(338.769118 206.134062) scale(0.18 -0.18)">
     <use xlink:href="#DejaVuSans-30"/>
    </g>
   </g>
   <g id="text_44">
    <!-- 1 -->
    <g style="fill: #262626" transform="translate(453.674833 206.134062) scale(0.18 -0.18)">
     <use xlink:href="#DejaVuSans-31"/>
    </g>
   </g>
   <g id="text_45">
    <!-- 2 -->
    <g style="fill: #ffffff" transform="translate(568.580547 206.134062) scale(0.18 -0.18)">
     <use xlink:href="#DejaVuSans-32"/>
    </g>
   </g>
   <g id="text_46">
    <!-- 0 -->
    <g style="fill: #262626" transform="translate(683.486261 206.134062) scale(0.18 -0.18)">
     <use xlink:href="#DejaVuSans-30"/>
    </g>
   </g>
   <g id="text_47">
    <!-- 0 -->
    <g style="fill: #262626" transform="translate(798.391975 206.134062) scale(0.18 -0.18)">
     <use xlink:href="#DejaVuSans-30"/>
    </g>
   </g>
   <g id="text_48">
    <!-- 0 -->
    <g style="fill: #262626" transform="translate(913.29769 206.134062) scale(0.18 -0.18)">
     <use xlink:href="#DejaVuSans-30"/>
    </g>
   </g>
   <g id="text_49">
    <!-- 0 -->
    <g style="fill: #262626" transform="translate(223.863404 243.087396) scale(0.18 -0.18)">
     <use xlink:href="#DejaVuSans-30"/>
    </g>
   </g>
   <g id="text_50">
    <!-- 0 -->
    <g style="fill: #262626" transform="translate(338.769118 243.087396) scale(0.18 -0.18)">
     <use xlink:href="#DejaVuSans-30"/>
    </g>
   </g>
   <g id="text_51">
    <!-- 0 -->
    <g style="fill: #262626" transform="translate(453.674833 243.087396) scale(0.18 -0.18)">
     <use xlink:href="#DejaVuSans-30"/>
    </g>
   </g>
   <g id="text_52">
    <!-- 0 -->
    <g style="fill: #262626" transform="translate(568.580547 243.087396) scale(0.18 -0.18)">
     <use xlink:href="#DejaVuSans-30"/>
    </g>
   </g>
   <g id="text_53">
    <!-- 2 -->
    <g style="fill: #ffffff" transform="translate(683.486261 243.087396) scale(0.18 -0.18)">
     <use xlink:href="#DejaVuSans-32"/>
    </g>
   </g>
   <g id="text_54">
    <!-- 0 -->
    <g style="fill: #262626" transform="translate(798.391975 243.087396) scale(0.18 -0.18)">
     <use xlink:href="#DejaVuSans-30"/>
    </g>
   </g>
   <g id="text_55">
    <!-- 2 -->
    <g style="fill: #ffffff" transform="translate(913.29769 243.087396) scale(0.18 -0.18)">
     <use xlink:href="#DejaVuSans-32"/>
    </g>
   </g>
   <g id="text_56">
    <!-- Competitive positioning matrix from verified project scope -->
    <g style="fill: #262626" transform="translate(310.958359 20.877187) scale(0.18 -0.18)">
     <defs>
      <path id="DejaVuSans-6a" d="M 603 3500 
L 1178 3500 
L 1178 -63 
Q 1178 -731 923 -1031 
Q 669 -1331 103 -1331 
L -116 -1331 
L -116 -844 
L 38 -844 
Q 366 -844 484 -692 
Q 603 -541 603 -63 
L 603 3500 
z
M 603 4863 
L 1178 4863 
L 1178 4134 
L 603 4134 
L 603 4863 
z
" transform="scale(0.015625)"/>
     </defs>
     <use xlink:href="#DejaVuSans-43"/>
     <use xlink:href="#DejaVuSans-6f" x="69.824219"/>
     <use xlink:href="#DejaVuSans-6d" x="131.005859"/>
     <use xlink:href="#DejaVuSans-70" x="228.417969"/>
     <use xlink:href="#DejaVuSans-65" x="291.894531"/>
     <use xlink:href="#DejaVuSans-74" x="353.417969"/>
     <use xlink:href="#DejaVuSans-69" x="392.626953"/>
     <use xlink:href="#DejaVuSans-74" x="420.410156"/>
     <use xlink:href="#DejaVuSans-69" x="459.619141"/>
     <use xlink:href="#DejaVuSans-76" x="487.402344"/>
     <use xlink:href="#DejaVuSans-65" x="546.582031"/>
     <use xlink:href="#DejaVuSans-20" x="608.105469"/>
     <use xlink:href="#DejaVuSans-70" x="639.892578"/>
     <use xlink:href="#DejaVuSans-6f" x="703.369141"/>
     <use xlink:href="#DejaVuSans-73" x="764.550781"/>
     <use xlink:href="#DejaVuSans-69" x="816.650391"/>
     <use xlink:href="#DejaVuSans-74" x="844.433594"/>
     <use xlink:href="#DejaVuSans-69" x="883.642578"/>
     <use xlink:href="#DejaVuSans-6f" x="911.425781"/>
     <use xlink:href="#DejaVuSans-6e" x="972.607422"/>
     <use xlink:href="#DejaVuSans-69" x="1035.986328"/>
     <use xlink:href="#DejaVuSans-6e" x="1063.769531"/>
     <use xlink:href="#DejaVuSans-67" x="1127.148438"/>
     <use xlink:href="#DejaVuSans-20" x="1190.625"/>
     <use xlink:href="#DejaVuSans-6d" x="1222.412109"/>
     <use xlink:href="#DejaVuSans-61" x="1319.824219"/>
     <use xlink:href="#DejaVuSans-74" x="1381.103516"/>
     <use xlink:href="#DejaVuSans-72" x="1420.3125"/>
     <use xlink:href="#DejaVuSans-69" x="1461.425781"/>
     <use xlink:href="#DejaVuSans-78" x="1489.208984"/>
     <use xlink:href="#DejaVuSans-20" x="1548.388672"/>
     <use xlink:href="#DejaVuSans-66" x="1580.175781"/>
     <use xlink:href="#DejaVuSans-72" x="1615.380859"/>
     <use xlink:href="#DejaVuSans-6f" x="1654.244141"/>
     <use xlink:href="#DejaVuSans-6d" x="1715.425781"/>
     <use xlink:href="#DejaVuSans-20" x="1812.837891"/>
     <use xlink:href="#DejaVuSans-76" x="1844.625"/>
     <use xlink:href="#DejaVuSans-65" x="1903.804688"/>
     <use xlink:href="#DejaVuSans-72" x="1965.328125"/>
     <use xlink:href="#DejaVuSans-69" x="2006.441406"/>
     <use xlink:href="#DejaVuSans-66" x="2034.224609"/>
     <use xlink:href="#DejaVuSans-69" x="2069.429688"/>
     <use xlink:href="#DejaVuSans-65" x="2097.212891"/>
     <use xlink:href="#DejaVuSans-64" x="2158.736328"/>
     <use xlink:href="#DejaVuSans-20" x="2222.212891"/>
     <use xlink:href="#DejaVuSans-70" x="2254"/>
     <use xlink:href="#DejaVuSans-72" x="2317.476562"/>
     <use xlink:href="#DejaVuSans-6f" x="2356.339844"/>
     <use xlink:href="#DejaVuSans-6a" x="2417.521484"/>
     <use xlink:href="#DejaVuSans-65" x="2445.304688"/>
     <use xlink:href="#DejaVuSans-63" x="2506.828125"/>
     <use xlink:href="#DejaVuSans-74" x="2561.808594"/>
     <use xlink:href="#DejaVuSans-20" x="2601.017578"/>
     <use xlink:href="#DejaVuSans-73" x="2632.804688"/>
     <use xlink:href="#DejaVuSans-63" x="2684.904297"/>
     <use xlink:href="#DejaVuSans-6f" x="2739.884766"/>
     <use xlink:href="#DejaVuSans-70" x="2801.066406"/>
     <use xlink:href="#DejaVuSans-65" x="2864.542969"/>
    </g>
   </g>
  </g>
 </g>
 <defs>
  <clipPath id="p8f967a0645">
   <rect x="172.136797" y="34.877187" width="804.34" height="221.72"/>
  </clipPath>
 </defs>
</svg>
